<svg xmlns="http://www.w3.org/2000/svg" version="1.1" xmlns:xlink="http://www.w3.org/1999/xlink" xmlns:svgjs="http://svgjs.dev/svgjs" width="1000" height="1000" viewBox="0 0 1000 1000"><rect width="1000" height="1000" fill="#ffffff"></rect><g transform="matrix(0.7,0,0,0.7,149.57575757575756,460.50978186164355)"><svg viewBox="0 0 396 45" data-background-color="#000000" preserveAspectRatio="xMidYMid meet" height="113" width="1000" xmlns="http://www.w3.org/2000/svg" xmlns:xlink="http://www.w3.org/1999/xlink"><g id="tight-bounds" transform="matrix(1,0,0,1,0.2400000000000091,-0.03400990864679443)"><svg viewBox="0 0 395.52 45.0680198172936" height="45.0680198172936" width="395.52"><g><svg viewBox="0 0 552.4150160855088 62.94561815410668" height="45.0680198172936" width="395.52"><g><rect width="4.107453549215106" height="45.77449077053343" x="406.2724962021337" y="8.585563691786625" fill="#000000" opacity="1" stroke-width="0" stroke="transparent" fill-opacity="1" class="rect-o-0" data-fill-palette-color="primary" rx="1%" id="o-0" data-palette-color="#89939e"></rect></g><g transform="matrix(1,0,0,1,0,8.699430584250635)"><svg viewBox="0 0 395.5199999999999 45.54675698560541" height="45.54675698560541" width="395.5199999999999"><g id="textblocktransform"><svg viewBox="0 0 395.5199999999999 45.54675698560541" height="45.54675698560541" width="395.5199999999999" id="textblock"><g><svg viewBox="0 0 395.5199999999999 45.54675698560541" height="45.54675698560541" width="395.5199999999999"><g transform="matrix(1,0,0,1,0,0)"><svg width="395.5199999999999" viewBox="3.049999952316284 -33.5 295.2300109863281 34" height="45.54675698560541" data-palette-color="#89939e"><g class="undefined-text-0" data-fill-palette-color="primary" id="text-0"><path d="M3.05-33L13.25-33 13.25 0 3.05 0 3.05-33ZM41.5-33L50.45-33 50.45 0 39.25 0 30.25-16.35 28.15-20.8 28.05-20.8 28.25-14.3 28.25 0 19.35 0 19.35-33 30.5-33 39.5-16.65 41.65-12.2 41.7-12.2 41.5-18.7 41.5-33ZM71.84-33.5L71.84-33.5Q77-33.5 80.67-31.48 84.34-29.45 86.32-25.65 88.3-21.85 88.3-16.5L88.3-16.5Q88.3-11.15 86.32-7.35 84.34-3.55 80.67-1.53 77 0.5 71.84 0.5L71.84 0.5Q66.75 0.5 63.02-1.53 59.3-3.55 57.3-7.35 55.3-11.15 55.3-16.5L55.3-16.5Q55.3-21.85 57.3-25.65 59.3-29.45 63.02-31.48 66.75-33.5 71.84-33.5ZM71.84-25.7L71.84-25.7Q69.8-25.7 68.47-24.68 67.15-23.65 66.47-21.65 65.8-19.65 65.8-16.5L65.8-16.5Q65.8-13.4 66.47-11.38 67.15-9.35 68.47-8.33 69.8-7.3 71.84-7.3L71.84-7.3Q73.84-7.3 75.2-8.33 76.55-9.35 77.2-11.38 77.84-13.4 77.84-16.5L77.84-16.5Q77.84-19.65 77.2-21.65 76.55-23.65 75.2-24.68 73.84-25.7 71.84-25.7ZM91.24-33L122.54-33 122.54-25.35 112.04-25.35 112.04 0 101.84 0 101.84-25.35 91.24-25.35 91.24-33ZM153.99 0L126.74 0 126.74-33 153.34-33 153.34-25.35 136.94-25.35 136.94-20 150.04-20 150.04-12.9 136.94-12.9 136.94-7.65 153.99-7.65 153.99 0ZM176.74 0L158.14 0 158.14-33 175.69-33Q181.89-32.95 184.86-30.73 187.84-28.5 187.84-24.15L187.84-24.15Q187.84-21.3 186.11-19.25 184.39-17.2 180.74-16.65L180.74-16.65 180.74-16.6Q184.79-16.1 186.74-14 188.69-11.9 188.69-8.8L188.69-8.8Q188.69-4.5 185.71-2.25 182.74 0 176.74 0L176.74 0ZM167.94-12.85L167.94-6.9 174.39-6.9Q176.34-6.9 177.29-7.68 178.24-8.45 178.24-9.9L178.24-9.9Q178.24-11.35 177.29-12.1 176.34-12.85 174.39-12.85L174.39-12.85 167.94-12.85ZM167.94-25.8L167.94-19.9 173.64-19.9Q177.39-19.9 177.39-22.85L177.39-22.85Q177.39-25.8 173.64-25.8L173.64-25.8 167.94-25.8ZM208.14-33.5L208.14-33.5Q213.29-33.5 216.96-31.48 220.64-29.45 222.61-25.65 224.59-21.85 224.59-16.5L224.59-16.5Q224.59-11.15 222.61-7.35 220.64-3.55 216.96-1.53 213.29 0.5 208.14 0.5L208.14 0.5Q203.04 0.5 199.31-1.53 195.59-3.55 193.59-7.35 191.59-11.15 191.59-16.5L191.59-16.5Q191.59-21.85 193.59-25.65 195.59-29.45 199.31-31.48 203.04-33.5 208.14-33.5ZM208.14-25.7L208.14-25.7Q206.09-25.7 204.76-24.68 203.44-23.65 202.76-21.65 202.09-19.65 202.09-16.5L202.09-16.5Q202.09-13.4 202.76-11.38 203.44-9.35 204.76-8.33 206.09-7.3 208.14-7.3L208.14-7.3Q210.14-7.3 211.49-8.33 212.84-9.35 213.49-11.38 214.14-13.4 214.14-16.5L214.14-16.5Q214.14-19.65 213.49-21.65 212.84-23.65 211.49-24.68 210.14-25.7 208.14-25.7ZM244.78-33.5L244.78-33.5Q249.93-33.5 253.61-31.48 257.28-29.45 259.26-25.65 261.23-21.85 261.23-16.5L261.23-16.5Q261.23-11.15 259.26-7.35 257.28-3.55 253.61-1.53 249.93 0.5 244.78 0.5L244.78 0.5Q239.68 0.5 235.96-1.53 232.23-3.55 230.23-7.35 228.23-11.15 228.23-16.5L228.23-16.5Q228.23-21.85 230.23-25.65 232.23-29.45 235.96-31.48 239.68-33.5 244.78-33.5ZM244.78-25.7L244.78-25.7Q242.73-25.7 241.41-24.68 240.08-23.65 239.41-21.65 238.73-19.65 238.73-16.5L238.73-16.5Q238.73-13.4 239.41-11.38 240.08-9.35 241.41-8.33 242.73-7.3 244.78-7.3L244.78-7.3Q246.78-7.3 248.13-8.33 249.48-9.35 250.13-11.38 250.78-13.4 250.78-16.5L250.78-16.5Q250.78-19.65 250.13-21.65 249.48-23.65 248.13-24.68 246.78-25.7 244.78-25.7ZM286.43-33L297.48-33 281.63-13.15 281.13-15.1 273.58-5.35 271.38-12.9 286.43-33ZM266.13-33L276.33-33 276.33 0 266.13 0 266.13-33ZM277.73-16.9L285.28-22.55 298.28 0 286.73 0 277.73-16.9Z" fill="#000000" data-fill-palette-color="primary"></path></g></svg></g></svg></g></svg></g></svg></g><g transform="matrix(1,0,0,1,421.1324459534826,0)"><svg viewBox="0 0 131.28257013202625 62.94561815410668" height="62.94561815410668" width="131.28257013202625"><g><svg xmlns="http://www.w3.org/2000/svg" xmlns:xlink="http://www.w3.org/1999/xlink" xmlns:a="http://ns.adobe.com/AdobeSVGViewerExtensions/3.0/" version="1.1" x="0" y="0" viewBox="0 0 97.427001953125 46.7130012512207" enable-background="new -1.286 -24.917 100 100" xml:space="preserve" height="62.94561815410668" width="131.28257013202625" class="icon-icon-0" data-fill-palette-color="accent" id="icon-0"><path d="M35.03 35.148c-7.732-3.146-11.661-3.487-15.821-3.848-4.101-0.354-8.347-0.729-16.382-3.95-0.597 0.901-1.09 2.651-1.487 4.772 8.261 2.153 12.443 1.988 16.477 1.821 4.081-0.168 8.298-0.341 16.548 1.847 2.792 0.741 4.966 1.47 6.695 2.176C39.524 37.117 37.569 36.181 35.03 35.148z" fill="#000000" data-fill-palette-color="accent"></path><path d="M34.048 37.982c-8.068-2.141-12.008-1.98-16.182-1.808-4.11 0.17-8.367 0.338-16.739-1.835-0.27 1.654-0.488 3.445-0.661 5.174 8.167 0.969 12.216 0.268 16.122-0.416 4.021-0.703 8.179-1.43 16.647-0.348 3.312 0.424 5.807 0.94 7.732 1.5C39.258 39.53 37.023 38.771 34.048 37.982z" fill="#000000" data-fill-palette-color="accent"></path><path d="M16.801 41.31c-3.991 0.697-8.125 1.412-16.451 0.43C0.18 43.635 0.063 45.386 0 46.685c8.365-0.059 12.312-1.281 16.133-2.465 3.901-1.208 7.934-2.457 16.469-2.457 2.886 0 5.174 0.146 7.025 0.387-1.702-0.43-3.83-0.831-6.547-1.178C24.8 39.912 20.914 40.591 16.801 41.31z" fill="#000000" data-fill-palette-color="accent"></path><path d="M79.611 33.969c4.043 0.165 8.232 0.333 16.533-1.835-0.41-2.307-0.904-4.096-1.479-4.783-8.078 3.246-12.334 3.619-16.447 3.975-4.16 0.361-8.09 0.7-15.822 3.849-2.539 1.034-4.496 1.97-6.031 2.821 1.729-0.707 3.904-1.438 6.699-2.178C71.312 33.628 75.531 33.802 79.611 33.969z" fill="#000000" data-fill-palette-color="accent"></path><path d="M94.041 25.278L85.287 0c-6.336 2.515-9.715 2.807-12.984 3.09-3.342 0.289-6.498 0.562-12.707 3.089-8.611 3.506-9.078 5.696-9.328 6.873-0.121 0.565-0.264 1.197-1.038 1.609v28.725c0.004-0.006 0.012-0.012 0.017-0.02 0.036-0.052 0.068-0.115 0.1-0.184 0.065-0.158 0.114-0.348 0.174-0.625 0.39-1.831 1.042-4.896 12.414-9.523 7.904-3.22 12.111-3.583 16.18-3.936C82.107 28.753 86.234 28.397 94.041 25.278z" fill="#000000" data-fill-palette-color="accent"></path><path d="M80.837 39.123c3.91 0.684 7.961 1.383 16.141 0.414-0.172-1.79-0.383-3.569-0.633-5.184-8.398 2.184-12.664 2.017-16.785 1.846-4.174-0.171-8.113-0.332-16.182 1.809-2.975 0.79-5.209 1.549-6.922 2.27 1.926-0.56 4.422-1.076 7.734-1.5C72.656 37.693 76.818 38.42 80.837 39.123z" fill="#000000" data-fill-palette-color="accent"></path><path d="M81.294 44.247c3.82 1.183 7.768 2.406 16.133 2.466-0.072-1.51-0.188-3.213-0.336-4.948-8.334 0.985-12.473 0.269-16.465-0.429-4.113-0.719-7.998-1.397-16.279-0.338-2.715 0.348-4.844 0.75-6.545 1.178 1.85-0.238 4.137-0.387 7.023-0.387C73.361 41.789 77.394 43.039 81.294 44.247z" fill="#000000" data-fill-palette-color="accent"></path><path d="M47.907 42.533c0.033 0.154 0.061 0.279 0.091 0.394V14.662c-0.774-0.412-0.917-1.044-1.037-1.609-0.251-1.177-0.717-3.367-9.329-6.873-6.209-2.527-9.365-2.8-12.706-3.089-3.27-0.283-6.647-0.576-12.981-3.089L3.382 25.25c7.81 3.121 11.938 3.479 15.933 3.824 4.068 0.353 8.274 0.717 16.179 3.934C46.866 37.636 47.518 40.702 47.907 42.533z" fill="#000000" data-fill-palette-color="accent"></path></svg></g></svg></g></svg></g><defs></defs></svg><rect width="395.52" height="45.0680198172936" fill="none" stroke="none" visibility="hidden"></rect></g></svg></g></svg>