<svg xmlns="http://www.w3.org/2000/svg" version="1.1" xmlns:xlink="http://www.w3.org/1999/xlink" xmlns:svgjs="http://svgjs.dev/svgjs" width="1000" height="1000" viewBox="0 0 1000 1000"><rect width="1000" height="1000" fill="#000000"></rect><g transform="matrix(0.7,0,0,0.7,149.57575757575756,438.1085766489547)"><svg viewBox="0 0 396 70" data-background-color="#fbeaab" preserveAspectRatio="xMidYMid meet" height="176" width="1000" xmlns="http://www.w3.org/2000/svg" xmlns:xlink="http://www.w3.org/1999/xlink"><g id="tight-bounds" transform="matrix(1,0,0,1,0.2400000000000091,0.16558144945756226)"><svg viewBox="0 0 395.52 69.66883710108488" height="69.66883710108488" width="395.52"><g><svg viewBox="0 0 528.10673146204 93.02331575196006" height="69.66883710108488" width="395.52"><g><rect width="8.347202601565787" height="93.02331575196006" x="102.38821314956898" y="0" fill="#ffffff" opacity="1" stroke-width="0" stroke="transparent" fill-opacity="1" class="rect-o-0" data-fill-palette-color="primary" rx="1%" id="o-0" data-palette-color="#454545"></rect></g><g transform="matrix(1,0,0,1,132.58673146203998,0.23140128296506646)"><svg viewBox="0 0 395.52 92.56051318602992" height="92.56051318602992" width="395.52"><g id="textblocktransform"><svg viewBox="0 0 395.52 92.56051318602992" height="92.56051318602992" width="395.52" id="textblock"><g><svg viewBox="0 0 395.52 92.56051318602992" height="92.56051318602992" width="395.52"><g transform="matrix(1,0,0,1,0,0)"><svg width="395.52" viewBox="2.200000047683716 -38.400001525878906 210.44000244140625 49.25" height="92.56051318602992" data-palette-color="#454545"><path d="M2.2-24.65L8.5-25.4Q8.85-24.65 9.05-23.83 9.25-23 9.35-22.2L9.35-22.2Q11.1-23.7 12.85-24.6 14.6-25.5 17-25.5L17-25.5Q19.05-25.5 20.73-24.65 22.4-23.8 23.2-21.85L23.2-21.85Q24.9-23.55 26.9-24.53 28.9-25.5 31.3-25.5L31.3-25.5Q34.05-25.5 35.58-24.38 37.1-23.25 37.7-21.33 38.3-19.4 38.3-16.95L38.3-16.95 38.3 0 32.3 0 32.3-16.6Q32.3-17.85 32.05-18.78 31.8-19.7 31.1-20.25 30.4-20.8 29-20.8L29-20.8Q27.75-20.8 26.3-19.88 24.85-18.95 24-18.1L24-18.1 24 0 17.95 0 17.95-16.75Q17.95-17.85 17.7-18.75 17.45-19.65 16.78-20.23 16.1-20.8 14.8-20.8L14.8-20.8Q13.95-20.8 13-20.38 12.05-19.95 11.2-19.33 10.35-18.7 9.75-18.05L9.75-18.05 9.75 0 3.75 0 3.75-17.8Q3.75-18.7 3.63-20.03 3.5-21.35 3.15-22.65 2.8-23.95 2.2-24.65L2.2-24.65ZM54.7-25.55L54.7-25.55Q58.15-25.55 60.37-24.05 62.6-22.55 63.67-20.18 64.75-17.8 64.75-15.1L64.75-15.1Q64.75-14.3 64.65-13.43 64.55-12.55 64.3-11.7L64.3-11.7 49.1-11.7Q49.1-7.7 51-5.58 52.9-3.45 55.95-3.45L55.95-3.45Q57.4-3.45 59.07-3.95 60.75-4.45 62.55-5.5L62.55-5.5 64.15-2.1Q62.45-0.75 59.87-0.1 57.3 0.55 55.25 0.55L55.25 0.55Q51.35 0.55 48.55-1.05 45.75-2.65 44.25-5.53 42.75-8.4 42.75-12.25L42.75-12.25Q42.75-14.9 43.55-17.28 44.35-19.65 45.9-21.53 47.45-23.4 49.67-24.48 51.9-25.55 54.7-25.55ZM54.45-21.45L54.45-21.45Q52.8-21.45 51.67-20.55 50.55-19.65 49.95-18.3 49.35-16.95 49.25-15.65L49.25-15.65 58.5-15.65Q58.75-17.1 58.35-18.43 57.95-19.75 56.95-20.6 55.95-21.45 54.45-21.45ZM68.35-24.65L74.65-25.4Q75-24.65 75.2-23.83 75.4-23 75.5-22.2L75.5-22.2Q77.25-23.7 79-24.6 80.75-25.5 83.15-25.5L83.15-25.5Q85.2-25.5 86.87-24.65 88.55-23.8 89.35-21.85L89.35-21.85Q91.05-23.55 93.05-24.53 95.05-25.5 97.45-25.5L97.45-25.5Q100.2-25.5 101.72-24.38 103.25-23.25 103.85-21.33 104.45-19.4 104.45-16.95L104.45-16.95 104.45 0 98.45 0 98.45-16.6Q98.45-17.85 98.2-18.78 97.95-19.7 97.25-20.25 96.55-20.8 95.15-20.8L95.15-20.8Q93.9-20.8 92.45-19.88 91-18.95 90.15-18.1L90.15-18.1 90.15 0 84.1 0 84.1-16.75Q84.1-17.85 83.85-18.75 83.6-19.65 82.92-20.23 82.25-20.8 80.95-20.8L80.95-20.8Q80.1-20.8 79.15-20.38 78.2-19.95 77.35-19.33 76.5-18.7 75.9-18.05L75.9-18.05 75.9 0 69.9 0 69.9-17.8Q69.9-18.7 69.77-20.03 69.65-21.35 69.3-22.65 68.95-23.95 68.35-24.65L68.35-24.65ZM120.84 0.6L120.84 0.6Q117.09 0.6 114.42-1.13 111.74-2.85 110.32-5.78 108.89-8.7 108.89-12.3L108.89-12.3Q108.89-15.9 110.39-18.9 111.89-21.9 114.67-23.7 117.44-25.5 121.14-25.5L121.14-25.5Q124.94-25.5 127.59-23.78 130.24-22.05 131.67-19.13 133.09-16.2 133.09-12.6L133.09-12.6Q133.09-9 131.59-6 130.09-3 127.37-1.2 124.64 0.6 120.84 0.6ZM120.89-3.4L120.89-3.4Q122.64-3.4 123.74-4.28 124.84-5.15 125.44-6.53 126.04-7.9 126.27-9.47 126.49-11.05 126.49-12.4L126.49-12.4Q126.49-13.8 126.32-15.38 126.14-16.95 125.59-18.32 125.04-19.7 123.97-20.55 122.89-21.4 121.09-21.4L121.09-21.4Q119.39-21.4 118.29-20.5 117.19-19.6 116.59-18.2 115.99-16.8 115.74-15.25 115.49-13.7 115.49-12.4L115.49-12.4Q115.49-11.05 115.69-9.5 115.89-7.95 116.44-6.55 116.99-5.15 118.07-4.28 119.14-3.4 120.89-3.4ZM136.29-24.65L142.54-25.4Q142.79-24.7 142.99-23.93 143.19-23.15 143.29-22.4L143.29-22.4Q144.39-23.9 146.42-24.73 148.44-25.55 150.19-25.55L150.19-25.55Q152.89-25.55 154.89-24.48 156.89-23.4 158.22-21.55 159.54-19.7 160.22-17.4 160.89-15.1 160.89-12.7L160.89-12.7Q160.89-9.1 159.59-6.1 158.29-3.1 155.69-1.3 153.09 0.5 149.24 0.5L149.24 0.5Q147.99 0.5 146.37 0.1 144.74-0.3 143.69-1.1L143.69-1.1Q143.79-0.4 143.79 0.43 143.79 1.25 143.79 1.8L143.79 1.8 143.79 8.1 144.49 10.85 137.74 10.85 137.74-17.85Q137.74-18.8 137.62-20.08 137.49-21.35 137.17-22.6 136.84-23.85 136.29-24.65L136.29-24.65ZM148.54-21.1L148.54-21.1Q147.19-21.1 145.87-20.38 144.54-19.65 143.79-18.5L143.79-18.5 143.79-10.35Q143.79-8.7 144.22-7.18 144.64-5.65 145.72-4.7 146.79-3.75 148.74-3.75L148.74-3.75Q150.39-3.75 151.47-4.6 152.54-5.45 153.19-6.8 153.84-8.15 154.09-9.65 154.34-11.15 154.34-12.45L154.34-12.45Q154.34-13.8 154.07-15.3 153.79-16.8 153.12-18.13 152.44-19.45 151.32-20.28 150.19-21.1 148.54-21.1ZM174.89-25.45L174.89-25.45Q178.89-25.45 181.06-23.43 183.24-21.4 183.24-17.35L183.24-17.35 183.24-6.4Q183.24-4.95 183.69-4.45 184.14-3.95 184.84-3.95L184.84-3.95Q185.34-3.95 185.81-4.05 186.29-4.15 186.79-4.35L186.79-4.35 187.74-0.95Q186.64-0.35 185.24 0.03 183.84 0.4 182.69 0.4L182.69 0.4Q180.89 0.4 179.79-0.35 178.69-1.1 178.24-2.95L178.24-2.95Q176.84-1 174.96-0.23 173.09 0.55 170.74 0.55L170.74 0.55Q167.84 0.55 165.76-1.13 163.69-2.8 163.69-5.85L163.69-5.85Q163.69-8.55 164.96-10.28 166.24-12 168.29-12.93 170.34-13.85 172.71-14.2 175.09-14.55 177.24-14.55L177.24-14.55 177.24-17.8Q177.24-19.8 176.39-20.55 175.54-21.3 173.64-21.3L173.64-21.3Q171.94-21.3 170.24-20.35 168.54-19.4 167.24-18.4L167.24-18.4 164.79-22.35Q167.04-23.9 169.61-24.68 172.19-25.45 174.89-25.45ZM177.24-9.3L177.24-10.45Q176.19-10.45 174.94-10.35 173.69-10.25 172.54-9.85 171.39-9.45 170.66-8.65 169.94-7.85 169.94-6.45L169.94-6.45Q169.94-5.3 170.86-4.67 171.79-4.05 172.84-4.05L172.84-4.05Q174.24-4.05 175.21-4.85 176.19-5.65 176.71-6.88 177.24-8.1 177.24-9.3L177.24-9.3ZM199.89-25.45L199.89-25.45Q201.19-25.45 202.81-25.08 204.44-24.7 205.44-23.85L205.44-23.85Q205.39-24.85 205.39-25.45 205.39-26.05 205.39-26.9L205.39-26.9 205.39-35.7 204.64-38.4 211.39-38.4 211.39-7.1Q211.39-6.15 211.51-4.85 211.64-3.55 211.91-2.3 212.19-1.05 212.64-0.15L212.64-0.15 206.59 0.45Q206.34-0.25 206.16-1 205.99-1.75 205.84-2.55L205.84-2.55Q204.79-1 202.76-0.2 200.74 0.6 198.94 0.6L198.94 0.6Q196.29 0.6 194.29-0.5 192.29-1.6 190.96-3.43 189.64-5.25 188.96-7.55 188.29-9.85 188.29-12.25L188.29-12.25Q188.29-15.85 189.59-18.85 190.89-21.85 193.46-23.65 196.04-25.45 199.89-25.45ZM200.44-21.2L200.44-21.2Q198.79-21.2 197.71-20.35 196.64-19.5 195.99-18.15 195.34-16.8 195.09-15.3 194.84-13.8 194.84-12.5L194.84-12.5Q194.84-11.15 195.11-9.65 195.39-8.15 196.06-6.83 196.74-5.5 197.86-4.67 198.99-3.85 200.64-3.85L200.64-3.85Q201.99-3.85 203.31-4.6 204.64-5.35 205.39-6.45L205.39-6.45 205.39-14.6Q205.39-16.25 204.94-17.78 204.49-19.3 203.41-20.25 202.34-21.2 200.44-21.2Z" opacity="1" transform="matrix(1,0,0,1,0,0)" fill="#ffffff" class="wordmark-text-0" data-fill-palette-color="primary" id="text-0"></path></svg></g></svg></g></svg></g></svg></g><g transform="matrix(1,0,0,1,0,0.23140128296506646)"><svg viewBox="0 0 80.53689743866379 92.56051318602992" height="92.56051318602992" width="80.53689743866379"><g><svg xmlns="http://www.w3.org/2000/svg" xmlns:xlink="http://www.w3.org/1999/xlink" version="1.1" x="0" y="0" viewBox="6.607999801635742 0 87.00999450683594 100" enable-background="new 0 0 100 100" xml:space="preserve" height="92.56051318602992" width="80.53689743866379" class="icon-icon-0" data-fill-palette-color="accent" id="icon-0"><path d="M50.171 6.288c11.637 8.013 30.191 11.898 38.101 13.26 0.301 2.772 0.455 5.527 0.455 8.223 0 27.634-14.728 52.93-38.612 66.642C26.229 80.697 11.5 55.402 11.5 27.771c0-2.669 0.154-5.403 0.455-8.17C20.031 18.318 38.946 14.568 50.171 6.288M50.039 0C38.216 11.699 7.588 15.281 7.588 15.281c-0.628 4.078-0.98 8.24-0.98 12.49 0 31.327 17.64 58.512 43.506 72.229 25.87-13.718 43.504-40.902 43.504-72.229 0-4.25-0.346-8.412-0.973-12.49C92.646 15.281 62.822 11.34 50.039 0L50.039 0z" fill="#ffffff" data-fill-palette-color="accent"></path><path d="M20.738 26.015c-0.435 2.824-0.677 5.702-0.677 8.638 0 21.633 12.19 40.407 30.053 49.882 17.864-9.476 30.052-28.249 30.052-49.882 0-2.936-0.247-5.814-0.674-8.638 0 0-20.602-2.719-29.432-10.551C41.892 23.542 20.738 26.015 20.738 26.015z" fill="#ffffff" data-fill-palette-color="accent"></path></svg></g></svg></g></svg></g><defs></defs></svg><rect width="395.52" height="69.66883710108488" fill="none" stroke="none" visibility="hidden"></rect></g></svg></g></svg>