<svg xmlns="http://www.w3.org/2000/svg" xmlns:xlink="http://www.w3.org/1999/xlink" width="500" zoomAndPan="magnify" viewBox="0 0 375 374.999991" height="500" preserveAspectRatio="xMidYMid meet" version="1.0"><defs><g/><clipPath id="6cc0d384a6"><path d="M 124.199219 202.425781 L 224.1875 202.425781 L 224.1875 228.015625 L 124.199219 228.015625 Z M 124.199219 202.425781 " clip-rule="nonzero"/></clipPath><clipPath id="3f76b72a48"><path d="M 124.199219 70.585938 L 250.890625 70.585938 L 250.890625 227.828125 L 124.199219 227.828125 Z M 124.199219 70.585938 " clip-rule="nonzero"/></clipPath></defs><g fill="#ffffff" fill-opacity="1"><g transform="translate(59.31884, 276.334862)"><g><path d="M 6.765625 -21.527344 C 6.886719 -21.527344 7.003906 -21.445312 7.042969 -21.328125 C 7.796875 -19.902344 8.507812 -18.480469 9.21875 -17.015625 C 9.257812 -16.9375 9.300781 -16.816406 9.378906 -16.699219 C 9.695312 -15.867188 10.011719 -15.195312 10.445312 -14.402344 C 10.800781 -13.808594 11.039062 -13.175781 11.277344 -12.542969 C 11.59375 -11.632812 11.871094 -10.722656 12.304688 -9.851562 C 12.386719 -9.734375 12.425781 -9.65625 12.464844 -9.535156 C 12.703125 -8.746094 13.058594 -8.03125 13.296875 -7.28125 C 13.53125 -6.570312 13.769531 -5.894531 14.125 -5.261719 C 14.285156 -4.789062 14.5625 -4.3125 14.71875 -3.796875 C 14.800781 -3.5625 14.917969 -3.285156 15.035156 -3.046875 C 15.394531 -2.414062 15.710938 -1.742188 15.984375 -1.070312 C 16.066406 -0.988281 16.105469 -0.871094 16.144531 -0.75 C 16.183594 -0.710938 16.183594 -0.710938 16.222656 -0.671875 C 16.304688 -0.476562 16.578125 -0.476562 16.738281 -0.632812 C 16.816406 -0.792969 16.894531 -0.910156 16.976562 -1.070312 C 17.171875 -1.621094 17.410156 -2.175781 17.609375 -2.730469 C 17.765625 -3.164062 17.886719 -3.601562 18.042969 -3.996094 C 18.203125 -4.550781 18.359375 -5.066406 18.597656 -5.578125 C 18.914062 -6.292969 19.191406 -7.003906 19.46875 -7.714844 C 19.625 -8.113281 19.824219 -8.507812 20.023438 -8.902344 C 20.21875 -9.339844 20.378906 -9.8125 20.496094 -10.289062 C 20.617188 -10.683594 20.773438 -11.117188 20.894531 -11.554688 C 21.050781 -12.070312 21.25 -12.621094 21.40625 -13.136719 C 21.683594 -13.847656 21.882812 -14.601562 22.199219 -15.273438 C 22.277344 -15.394531 22.316406 -15.511719 22.316406 -15.628906 C 22.59375 -16.460938 22.871094 -17.292969 23.148438 -18.164062 C 23.503906 -19.390625 23.980469 -20.578125 24.492188 -21.761719 C 24.613281 -21.960938 24.691406 -22.199219 24.808594 -22.398438 C 24.808594 -22.4375 24.851562 -22.476562 24.890625 -22.476562 C 24.929688 -22.515625 24.96875 -22.515625 25.007812 -22.476562 C 25.046875 -22.476562 25.125 -22.398438 25.167969 -22.316406 C 25.246094 -21.882812 25.207031 -21.445312 25.207031 -21.011719 C 25.207031 -17.488281 25.207031 -14.007812 25.207031 -10.527344 C 25.207031 -10.25 25.167969 -9.933594 25.167969 -9.65625 C 25.125 -9.300781 25.085938 -8.941406 25.085938 -8.585938 C 25.085938 -7.042969 25.046875 -5.539062 25.046875 -3.996094 C 25.046875 -3.480469 25.007812 -2.96875 24.96875 -2.453125 C 24.929688 -2.214844 24.851562 -1.976562 24.808594 -1.742188 C 24.769531 -1.621094 24.691406 -1.503906 24.613281 -1.425781 C 24.613281 -1.425781 24.574219 -1.386719 24.535156 -1.34375 C 24.214844 -1.109375 23.859375 -0.910156 23.425781 -0.871094 C 22.988281 -0.710938 22.515625 -0.632812 22.078125 -0.433594 C 22 -0.394531 21.921875 -0.355469 21.882812 -0.277344 C 21.84375 -0.238281 21.804688 -0.160156 21.761719 -0.078125 C 21.761719 0 21.921875 0.199219 21.960938 0.199219 C 22.078125 0.238281 22.199219 0.277344 22.316406 0.277344 C 23.703125 0.238281 25.046875 0.238281 26.433594 0.238281 C 27.105469 0.238281 27.777344 0.238281 28.449219 0.160156 C 28.6875 0.117188 28.964844 0.117188 29.203125 0.117188 C 30.191406 0.117188 31.179688 0.117188 32.210938 0.078125 C 32.488281 0.078125 32.765625 0.078125 33.039062 0.0390625 C 33.121094 0.0390625 33.199219 0 33.277344 0 C 33.355469 -0.0390625 33.476562 -0.199219 33.476562 -0.277344 C 33.476562 -0.394531 33.355469 -0.554688 33.316406 -0.59375 C 33.238281 -0.59375 33.160156 -0.671875 33.082031 -0.671875 C 32.488281 -0.710938 31.972656 -0.910156 31.496094 -1.1875 C 31.339844 -1.226562 31.21875 -1.34375 31.0625 -1.425781 C 30.945312 -1.542969 30.863281 -1.660156 30.785156 -1.820312 C 30.707031 -2.019531 30.628906 -2.253906 30.667969 -2.492188 C 30.785156 -3.007812 30.785156 -3.480469 30.785156 -3.957031 C 30.785156 -4.984375 30.785156 -6.054688 30.785156 -7.082031 C 30.824219 -8.707031 30.824219 -10.289062 30.824219 -11.910156 C 30.785156 -15.511719 30.824219 -19.152344 30.824219 -22.753906 C 30.824219 -23.308594 30.824219 -23.898438 30.863281 -24.453125 C 30.863281 -24.890625 30.945312 -25.324219 31.0625 -25.761719 C 31.101562 -26.035156 31.300781 -26.273438 31.539062 -26.433594 C 31.695312 -26.550781 31.855469 -26.671875 32.050781 -26.710938 C 32.488281 -26.75 32.921875 -26.867188 33.316406 -27.027344 C 33.4375 -27.066406 33.4375 -27.105469 33.4375 -27.222656 C 33.4375 -27.382812 33.316406 -27.539062 33.199219 -27.582031 C 33.039062 -27.621094 32.882812 -27.621094 32.722656 -27.621094 C 31.179688 -27.621094 29.636719 -27.621094 28.132812 -27.621094 C 26.867188 -27.621094 26.867188 -27.621094 25.601562 -27.421875 C 25.5625 -27.421875 25.523438 -27.421875 25.484375 -27.421875 C 25.363281 -27.34375 25.285156 -27.304688 25.167969 -27.261719 C 25.085938 -27.183594 24.96875 -27.105469 24.929688 -26.988281 C 24.808594 -26.789062 24.652344 -26.589844 24.574219 -26.355469 C 24.214844 -25.601562 23.898438 -24.808594 23.625 -24.019531 C 23.425781 -23.425781 23.226562 -22.871094 22.988281 -22.316406 C 22.554688 -21.289062 22.160156 -20.261719 21.804688 -19.152344 C 21.722656 -18.914062 21.644531 -18.636719 21.527344 -18.359375 C 21.167969 -17.410156 20.773438 -16.421875 20.339844 -15.472656 C 19.902344 -14.402344 19.429688 -13.335938 19.03125 -12.226562 C 18.914062 -11.988281 18.835938 -11.710938 18.714844 -11.476562 C 18.675781 -11.355469 18.597656 -11.316406 18.519531 -11.355469 C 18.441406 -11.355469 18.398438 -11.394531 18.359375 -11.476562 C 18.28125 -11.632812 18.242188 -11.792969 18.164062 -11.949219 C 17.925781 -12.386719 17.6875 -12.859375 17.488281 -13.335938 C 17.253906 -13.847656 16.976562 -14.324219 16.738281 -14.878906 C 16.699219 -15.035156 16.578125 -15.234375 16.5 -15.394531 C 16.183594 -15.945312 15.90625 -16.539062 15.628906 -17.132812 C 15.433594 -17.488281 15.273438 -17.847656 15.117188 -18.203125 C 14.917969 -18.714844 14.71875 -19.191406 14.441406 -19.625 C 14.007812 -20.535156 13.53125 -21.40625 13.097656 -22.316406 C 12.9375 -22.59375 12.820312 -22.910156 12.703125 -23.1875 C 12.265625 -24.097656 11.871094 -25.046875 11.476562 -25.957031 C 11.316406 -26.273438 11.160156 -26.589844 11 -26.945312 C 10.960938 -27.027344 10.921875 -27.144531 10.84375 -27.261719 C 10.761719 -27.421875 10.566406 -27.539062 10.367188 -27.582031 C 10.25 -27.621094 10.128906 -27.660156 10.011719 -27.660156 C 9.617188 -27.660156 9.21875 -27.699219 8.824219 -27.699219 C 7.796875 -27.699219 6.804688 -27.699219 5.816406 -27.699219 C 5.34375 -27.699219 4.90625 -27.699219 4.472656 -27.582031 C 4.117188 -27.539062 3.757812 -27.5 3.402344 -27.5 C 3.164062 -27.460938 2.929688 -27.460938 2.691406 -27.421875 C 2.492188 -27.421875 2.296875 -27.382812 2.097656 -27.304688 C 1.9375 -27.222656 1.78125 -27.183594 1.660156 -27.105469 C 1.621094 -27.105469 1.582031 -27.066406 1.582031 -27.027344 C 1.464844 -26.945312 1.503906 -26.789062 1.582031 -26.710938 C 1.703125 -26.628906 1.859375 -26.550781 2.019531 -26.550781 C 2.492188 -26.550781 2.96875 -26.550781 3.441406 -26.511719 C 3.5625 -26.511719 3.679688 -26.472656 3.796875 -26.433594 C 3.917969 -26.433594 4.117188 -26.195312 4.117188 -26.078125 C 4.117188 -25.957031 4.117188 -25.839844 4.117188 -25.71875 C 4.117188 -24.929688 4.117188 -24.136719 4.117188 -23.308594 C 4.117188 -23.070312 4.074219 -22.832031 4.117188 -22.59375 C 4.234375 -22.078125 4.234375 -21.566406 4.273438 -21.050781 C 4.3125 -20.140625 4.273438 -19.269531 4.433594 -18.398438 C 4.472656 -18.28125 4.472656 -18.164062 4.472656 -18.042969 C 4.511719 -17.054688 4.550781 -16.105469 4.589844 -15.15625 C 4.589844 -14.5625 4.589844 -14.007812 4.667969 -13.453125 C 4.707031 -13.214844 4.707031 -12.980469 4.707031 -12.742188 C 4.75 -10.289062 4.789062 -7.835938 4.75 -5.382812 C 4.75 -4.75 4.75 -4.074219 4.75 -3.441406 C 4.75 -2.769531 4.628906 -2.097656 4.550781 -1.425781 C 4.511719 -1.1875 4.351562 -1.027344 4.195312 -0.949219 C 3.957031 -0.871094 3.71875 -0.75 3.523438 -0.710938 C 3.046875 -0.59375 2.570312 -0.433594 2.097656 -0.433594 C 1.976562 -0.433594 1.859375 -0.394531 1.742188 -0.355469 C 1.621094 -0.316406 1.542969 -0.238281 1.464844 -0.117188 C 1.425781 -0.0390625 1.386719 0.0390625 1.464844 0.117188 C 1.503906 0.160156 1.582031 0.238281 1.621094 0.238281 C 2.097656 0.316406 2.613281 0.277344 3.085938 0.277344 C 3.246094 0.238281 3.402344 0.238281 3.5625 0.199219 C 3.757812 0.117188 3.957031 0.117188 4.15625 0.078125 C 5.023438 0.078125 5.894531 0.078125 6.804688 0.078125 C 7.082031 0.078125 7.359375 0.117188 7.636719 0.117188 C 8.152344 0.277344 8.664062 0.277344 9.179688 0.277344 C 9.457031 0.277344 9.773438 0.238281 10.050781 0.238281 C 10.128906 0.238281 10.167969 0.199219 10.25 0.160156 C 10.445312 0.0390625 10.484375 -0.199219 10.328125 -0.355469 C 10.210938 -0.476562 10.089844 -0.554688 9.890625 -0.59375 C 9.695312 -0.632812 9.496094 -0.632812 9.300781 -0.632812 C 8.785156 -0.632812 8.269531 -0.75 7.753906 -0.871094 C 7.4375 -0.949219 7.164062 -1.109375 6.886719 -1.265625 C 6.765625 -1.34375 6.648438 -1.503906 6.648438 -1.660156 C 6.648438 -2.019531 6.648438 -2.375 6.648438 -2.769531 C 6.726562 -4.628906 6.726562 -6.527344 6.726562 -8.429688 C 6.726562 -10.167969 6.726562 -11.949219 6.726562 -13.730469 C 6.726562 -14.085938 6.726562 -14.441406 6.726562 -14.800781 C 6.648438 -16.660156 6.648438 -18.519531 6.648438 -20.339844 C 6.648438 -20.695312 6.6875 -21.011719 6.6875 -21.328125 C 6.6875 -21.40625 6.726562 -21.488281 6.765625 -21.527344 Z M 6.765625 -21.527344 "/></g></g></g><g fill="#ffffff" fill-opacity="1"><g transform="translate(102.131225, 276.334862)"><g><path d="M 11.671875 0.0390625 C 12.070312 0.0390625 12.464844 0.0390625 12.859375 0.0390625 C 15.550781 0.0390625 18.242188 0.0390625 20.933594 0.0390625 C 21.289062 0.0390625 21.605469 0.0390625 21.921875 0 C 22.160156 0 22.398438 -0.117188 22.59375 -0.238281 C 22.714844 -0.355469 22.792969 -0.515625 22.832031 -0.671875 C 22.871094 -0.988281 22.871094 -1.304688 22.910156 -1.621094 C 22.949219 -1.820312 22.949219 -2.019531 22.988281 -2.214844 C 23.070312 -2.53125 23.109375 -2.847656 23.109375 -3.164062 C 23.148438 -3.679688 23.148438 -4.195312 23.226562 -4.707031 C 23.386719 -5.34375 23.386719 -6.015625 23.347656 -6.648438 C 23.347656 -6.84375 23.109375 -7.003906 22.910156 -6.925781 C 22.753906 -6.925781 22.632812 -6.804688 22.554688 -6.648438 C 22.515625 -6.527344 22.476562 -6.410156 22.476562 -6.292969 C 22.398438 -5.976562 22.355469 -5.660156 22.238281 -5.382812 C 22.160156 -5.066406 22.039062 -4.75 21.882812 -4.472656 C 21.761719 -4.195312 21.605469 -3.917969 21.488281 -3.601562 C 21.367188 -3.363281 21.210938 -3.125 21.050781 -2.886719 C 20.894531 -2.691406 20.734375 -2.53125 20.535156 -2.375 C 20.378906 -2.253906 20.21875 -2.136719 20.023438 -2.058594 C 19.785156 -1.898438 19.546875 -1.78125 19.269531 -1.703125 C 18.636719 -1.542969 18.042969 -1.386719 17.371094 -1.34375 C 16.816406 -1.34375 16.261719 -1.34375 15.710938 -1.226562 C 15.511719 -1.1875 15.273438 -1.1875 15.074219 -1.1875 C 13.613281 -1.1875 12.109375 -1.1875 10.644531 -1.1875 C 10.527344 -1.1875 10.40625 -1.1875 10.289062 -1.1875 C 10.210938 -1.226562 10.011719 -1.34375 10.011719 -1.425781 C 9.972656 -1.503906 9.933594 -1.582031 9.933594 -1.660156 C 9.933594 -2.136719 9.890625 -2.613281 9.890625 -3.085938 C 9.890625 -4.789062 9.890625 -6.488281 9.890625 -8.152344 C 9.890625 -8.980469 9.890625 -9.773438 10.011719 -10.566406 C 10.050781 -10.761719 10.050781 -10.960938 10.050781 -11.160156 C 10.089844 -11.710938 10.089844 -12.304688 10.128906 -12.859375 C 10.128906 -12.980469 10.128906 -13.097656 10.167969 -13.214844 C 10.167969 -13.296875 10.328125 -13.453125 10.40625 -13.453125 C 10.527344 -13.492188 10.722656 -13.53125 10.882812 -13.53125 C 12.148438 -13.492188 13.453125 -13.492188 14.71875 -13.492188 C 15.234375 -13.492188 15.667969 -13.375 16.105469 -13.136719 C 16.183594 -13.058594 16.304688 -13.019531 16.421875 -12.9375 C 16.460938 -12.9375 16.460938 -12.898438 16.5 -12.859375 C 16.660156 -12.78125 16.777344 -12.664062 16.816406 -12.503906 C 17.015625 -12.027344 17.171875 -11.515625 17.292969 -11.039062 C 17.371094 -10.761719 17.449219 -10.484375 17.570312 -10.210938 C 17.609375 -10.167969 17.648438 -10.089844 17.6875 -10.011719 C 17.765625 -9.890625 17.847656 -9.851562 18.003906 -9.851562 C 18.121094 -9.851562 18.28125 -10.011719 18.320312 -10.167969 C 18.320312 -10.289062 18.320312 -10.40625 18.320312 -10.527344 C 18.320312 -10.84375 18.28125 -11.160156 18.203125 -11.476562 C 18.121094 -11.792969 18.082031 -12.109375 18.082031 -12.425781 C 18.042969 -13.019531 18.042969 -13.613281 18.082031 -14.246094 C 18.121094 -14.484375 18.082031 -14.71875 18.164062 -14.957031 C 18.28125 -15.710938 18.28125 -16.460938 18.359375 -17.214844 C 18.398438 -17.53125 18.359375 -17.804688 18.359375 -18.082031 C 18.359375 -18.164062 18.359375 -18.242188 18.320312 -18.320312 C 18.28125 -18.359375 18.203125 -18.441406 18.164062 -18.480469 C 18.121094 -18.519531 17.886719 -18.441406 17.847656 -18.398438 C 17.765625 -18.28125 17.6875 -18.203125 17.648438 -18.082031 C 17.53125 -17.726562 17.449219 -17.371094 17.410156 -17.015625 C 17.332031 -16.660156 17.214844 -16.34375 17.09375 -15.984375 C 17.015625 -15.710938 16.816406 -15.511719 16.578125 -15.351562 C 16.144531 -15.074219 15.710938 -14.917969 15.234375 -14.917969 C 15.035156 -14.917969 14.839844 -14.878906 14.640625 -14.878906 C 13.296875 -14.878906 11.988281 -14.878906 10.644531 -14.878906 C 10.605469 -14.878906 10.566406 -14.878906 10.527344 -14.878906 C 10.367188 -14.917969 10.210938 -15.074219 10.210938 -15.195312 C 10.210938 -15.550781 10.210938 -15.945312 10.210938 -16.304688 C 10.210938 -16.621094 10.167969 -16.9375 10.210938 -17.253906 C 10.289062 -17.648438 10.289062 -18.042969 10.289062 -18.441406 C 10.289062 -19.308594 10.289062 -20.140625 10.289062 -20.972656 C 10.289062 -21.644531 10.328125 -22.277344 10.210938 -22.910156 C 10.167969 -23.03125 10.167969 -23.148438 10.167969 -23.265625 C 10.167969 -24.058594 10.128906 -24.890625 10.128906 -25.679688 C 10.089844 -25.800781 10.128906 -25.917969 10.128906 -26.035156 C 10.128906 -26.15625 10.289062 -26.355469 10.445312 -26.394531 C 10.605469 -26.433594 10.761719 -26.433594 10.921875 -26.433594 C 12.425781 -26.433594 13.96875 -26.433594 15.472656 -26.433594 C 15.984375 -26.433594 16.460938 -26.433594 16.9375 -26.433594 C 17.09375 -26.433594 17.253906 -26.433594 17.410156 -26.394531 C 17.765625 -26.273438 18.121094 -26.273438 18.480469 -26.195312 C 18.597656 -26.15625 18.714844 -26.117188 18.796875 -26.035156 C 18.875 -25.996094 18.953125 -25.957031 18.992188 -25.917969 C 19.667969 -25.324219 20.21875 -24.613281 20.695312 -23.859375 C 20.894531 -23.542969 21.089844 -23.1875 21.289062 -22.832031 C 21.328125 -22.753906 21.367188 -22.671875 21.367188 -22.59375 C 21.488281 -22.238281 21.644531 -21.921875 21.683594 -21.566406 C 21.683594 -21.445312 21.722656 -21.328125 21.761719 -21.210938 C 21.761719 -21.128906 21.804688 -21.050781 21.882812 -21.011719 C 21.921875 -20.972656 22 -20.933594 22.078125 -20.933594 C 22.160156 -20.894531 22.355469 -21.050781 22.355469 -21.128906 C 22.355469 -21.210938 22.398438 -21.289062 22.398438 -21.367188 C 22.398438 -21.960938 22.398438 -22.554688 22.316406 -23.148438 C 22.277344 -23.542969 22.238281 -23.980469 22.238281 -24.375 C 22.238281 -24.96875 22.238281 -25.5625 22.238281 -26.15625 C 22.199219 -26.550781 22.199219 -26.90625 22.121094 -27.261719 C 22.121094 -27.382812 21.921875 -27.539062 21.804688 -27.582031 C 21.605469 -27.621094 21.40625 -27.621094 21.210938 -27.621094 C 17.253906 -27.660156 13.335938 -27.660156 9.378906 -27.699219 C 9.101562 -27.699219 8.824219 -27.699219 8.546875 -27.660156 C 8.03125 -27.621094 7.480469 -27.621094 6.964844 -27.621094 C 6.6875 -27.621094 6.410156 -27.582031 6.132812 -27.539062 C 5.34375 -27.382812 4.550781 -27.421875 3.71875 -27.539062 C 3.125 -27.621094 2.53125 -27.621094 1.9375 -27.582031 C 1.820312 -27.582031 1.660156 -27.421875 1.660156 -27.261719 C 1.660156 -27.183594 1.703125 -27.105469 1.742188 -27.027344 C 1.898438 -26.867188 2.058594 -26.75 2.253906 -26.75 C 2.691406 -26.710938 3.125 -26.550781 3.5625 -26.472656 C 3.757812 -26.433594 3.917969 -26.3125 4.074219 -26.15625 C 4.195312 -26.078125 4.273438 -25.917969 4.273438 -25.761719 C 4.3125 -25.523438 4.3125 -25.285156 4.3125 -25.046875 C 4.3125 -23.347656 4.3125 -21.644531 4.3125 -19.984375 C 4.351562 -19.191406 4.351562 -18.441406 4.390625 -17.6875 C 4.390625 -17.449219 4.390625 -17.214844 4.433594 -16.976562 C 4.511719 -16.578125 4.511719 -16.144531 4.511719 -15.75 C 4.511719 -14.71875 4.511719 -13.652344 4.550781 -12.621094 C 4.589844 -12.109375 4.550781 -11.59375 4.511719 -11.078125 C 4.390625 -10.289062 4.390625 -9.535156 4.351562 -8.785156 C 4.351562 -8.269531 4.351562 -7.714844 4.3125 -7.203125 C 4.3125 -6.964844 4.3125 -6.726562 4.273438 -6.488281 C 4.117188 -5.976562 4.15625 -5.460938 4.15625 -4.945312 C 4.15625 -4.351562 4.15625 -3.796875 4.15625 -3.246094 C 4.15625 -2.847656 4.117188 -2.453125 4.074219 -2.058594 C 4.035156 -1.742188 3.878906 -1.503906 3.601562 -1.386719 C 3.441406 -1.265625 3.246094 -1.1875 3.046875 -1.109375 C 2.769531 -0.988281 2.453125 -0.949219 2.136719 -0.910156 C 1.859375 -0.871094 1.582031 -0.75 1.34375 -0.59375 C 1.265625 -0.515625 1.226562 -0.394531 1.226562 -0.277344 C 1.226562 -0.160156 1.34375 -0.0390625 1.425781 0 C 1.582031 0.078125 1.742188 0.078125 1.898438 0.078125 C 4.074219 0.078125 6.253906 0.117188 8.429688 0.117188 C 9.457031 0.117188 10.527344 0.160156 11.554688 0.0390625 C 11.59375 0.0390625 11.632812 0.0390625 11.671875 0.0390625 Z M 11.671875 0.0390625 "/></g></g></g><g fill="#ffffff" fill-opacity="1"><g transform="translate(134.972892, 276.334862)"><g><path d="M 6.765625 -21.527344 C 6.886719 -21.527344 7.003906 -21.445312 7.042969 -21.328125 C 7.796875 -19.902344 8.507812 -18.480469 9.21875 -17.015625 C 9.257812 -16.9375 9.300781 -16.816406 9.378906 -16.699219 C 9.695312 -15.867188 10.011719 -15.195312 10.445312 -14.402344 C 10.800781 -13.808594 11.039062 -13.175781 11.277344 -12.542969 C 11.59375 -11.632812 11.871094 -10.722656 12.304688 -9.851562 C 12.386719 -9.734375 12.425781 -9.65625 12.464844 -9.535156 C 12.703125 -8.746094 13.058594 -8.03125 13.296875 -7.28125 C 13.53125 -6.570312 13.769531 -5.894531 14.125 -5.261719 C 14.285156 -4.789062 14.5625 -4.3125 14.71875 -3.796875 C 14.800781 -3.5625 14.917969 -3.285156 15.035156 -3.046875 C 15.394531 -2.414062 15.710938 -1.742188 15.984375 -1.070312 C 16.066406 -0.988281 16.105469 -0.871094 16.144531 -0.75 C 16.183594 -0.710938 16.183594 -0.710938 16.222656 -0.671875 C 16.304688 -0.476562 16.578125 -0.476562 16.738281 -0.632812 C 16.816406 -0.792969 16.894531 -0.910156 16.976562 -1.070312 C 17.171875 -1.621094 17.410156 -2.175781 17.609375 -2.730469 C 17.765625 -3.164062 17.886719 -3.601562 18.042969 -3.996094 C 18.203125 -4.550781 18.359375 -5.066406 18.597656 -5.578125 C 18.914062 -6.292969 19.191406 -7.003906 19.46875 -7.714844 C 19.625 -8.113281 19.824219 -8.507812 20.023438 -8.902344 C 20.21875 -9.339844 20.378906 -9.8125 20.496094 -10.289062 C 20.617188 -10.683594 20.773438 -11.117188 20.894531 -11.554688 C 21.050781 -12.070312 21.25 -12.621094 21.40625 -13.136719 C 21.683594 -13.847656 21.882812 -14.601562 22.199219 -15.273438 C 22.277344 -15.394531 22.316406 -15.511719 22.316406 -15.628906 C 22.59375 -16.460938 22.871094 -17.292969 23.148438 -18.164062 C 23.503906 -19.390625 23.980469 -20.578125 24.492188 -21.761719 C 24.613281 -21.960938 24.691406 -22.199219 24.808594 -22.398438 C 24.808594 -22.4375 24.851562 -22.476562 24.890625 -22.476562 C 24.929688 -22.515625 24.96875 -22.515625 25.007812 -22.476562 C 25.046875 -22.476562 25.125 -22.398438 25.167969 -22.316406 C 25.246094 -21.882812 25.207031 -21.445312 25.207031 -21.011719 C 25.207031 -17.488281 25.207031 -14.007812 25.207031 -10.527344 C 25.207031 -10.25 25.167969 -9.933594 25.167969 -9.65625 C 25.125 -9.300781 25.085938 -8.941406 25.085938 -8.585938 C 25.085938 -7.042969 25.046875 -5.539062 25.046875 -3.996094 C 25.046875 -3.480469 25.007812 -2.96875 24.96875 -2.453125 C 24.929688 -2.214844 24.851562 -1.976562 24.808594 -1.742188 C 24.769531 -1.621094 24.691406 -1.503906 24.613281 -1.425781 C 24.613281 -1.425781 24.574219 -1.386719 24.535156 -1.34375 C 24.214844 -1.109375 23.859375 -0.910156 23.425781 -0.871094 C 22.988281 -0.710938 22.515625 -0.632812 22.078125 -0.433594 C 22 -0.394531 21.921875 -0.355469 21.882812 -0.277344 C 21.84375 -0.238281 21.804688 -0.160156 21.761719 -0.078125 C 21.761719 0 21.921875 0.199219 21.960938 0.199219 C 22.078125 0.238281 22.199219 0.277344 22.316406 0.277344 C 23.703125 0.238281 25.046875 0.238281 26.433594 0.238281 C 27.105469 0.238281 27.777344 0.238281 28.449219 0.160156 C 28.6875 0.117188 28.964844 0.117188 29.203125 0.117188 C 30.191406 0.117188 31.179688 0.117188 32.210938 0.078125 C 32.488281 0.078125 32.765625 0.078125 33.039062 0.0390625 C 33.121094 0.0390625 33.199219 0 33.277344 0 C 33.355469 -0.0390625 33.476562 -0.199219 33.476562 -0.277344 C 33.476562 -0.394531 33.355469 -0.554688 33.316406 -0.59375 C 33.238281 -0.59375 33.160156 -0.671875 33.082031 -0.671875 C 32.488281 -0.710938 31.972656 -0.910156 31.496094 -1.1875 C 31.339844 -1.226562 31.21875 -1.34375 31.0625 -1.425781 C 30.945312 -1.542969 30.863281 -1.660156 30.785156 -1.820312 C 30.707031 -2.019531 30.628906 -2.253906 30.667969 -2.492188 C 30.785156 -3.007812 30.785156 -3.480469 30.785156 -3.957031 C 30.785156 -4.984375 30.785156 -6.054688 30.785156 -7.082031 C 30.824219 -8.707031 30.824219 -10.289062 30.824219 -11.910156 C 30.785156 -15.511719 30.824219 -19.152344 30.824219 -22.753906 C 30.824219 -23.308594 30.824219 -23.898438 30.863281 -24.453125 C 30.863281 -24.890625 30.945312 -25.324219 31.0625 -25.761719 C 31.101562 -26.035156 31.300781 -26.273438 31.539062 -26.433594 C 31.695312 -26.550781 31.855469 -26.671875 32.050781 -26.710938 C 32.488281 -26.75 32.921875 -26.867188 33.316406 -27.027344 C 33.4375 -27.066406 33.4375 -27.105469 33.4375 -27.222656 C 33.4375 -27.382812 33.316406 -27.539062 33.199219 -27.582031 C 33.039062 -27.621094 32.882812 -27.621094 32.722656 -27.621094 C 31.179688 -27.621094 29.636719 -27.621094 28.132812 -27.621094 C 26.867188 -27.621094 26.867188 -27.621094 25.601562 -27.421875 C 25.5625 -27.421875 25.523438 -27.421875 25.484375 -27.421875 C 25.363281 -27.34375 25.285156 -27.304688 25.167969 -27.261719 C 25.085938 -27.183594 24.96875 -27.105469 24.929688 -26.988281 C 24.808594 -26.789062 24.652344 -26.589844 24.574219 -26.355469 C 24.214844 -25.601562 23.898438 -24.808594 23.625 -24.019531 C 23.425781 -23.425781 23.226562 -22.871094 22.988281 -22.316406 C 22.554688 -21.289062 22.160156 -20.261719 21.804688 -19.152344 C 21.722656 -18.914062 21.644531 -18.636719 21.527344 -18.359375 C 21.167969 -17.410156 20.773438 -16.421875 20.339844 -15.472656 C 19.902344 -14.402344 19.429688 -13.335938 19.03125 -12.226562 C 18.914062 -11.988281 18.835938 -11.710938 18.714844 -11.476562 C 18.675781 -11.355469 18.597656 -11.316406 18.519531 -11.355469 C 18.441406 -11.355469 18.398438 -11.394531 18.359375 -11.476562 C 18.28125 -11.632812 18.242188 -11.792969 18.164062 -11.949219 C 17.925781 -12.386719 17.6875 -12.859375 17.488281 -13.335938 C 17.253906 -13.847656 16.976562 -14.324219 16.738281 -14.878906 C 16.699219 -15.035156 16.578125 -15.234375 16.5 -15.394531 C 16.183594 -15.945312 15.90625 -16.539062 15.628906 -17.132812 C 15.433594 -17.488281 15.273438 -17.847656 15.117188 -18.203125 C 14.917969 -18.714844 14.71875 -19.191406 14.441406 -19.625 C 14.007812 -20.535156 13.53125 -21.40625 13.097656 -22.316406 C 12.9375 -22.59375 12.820312 -22.910156 12.703125 -23.1875 C 12.265625 -24.097656 11.871094 -25.046875 11.476562 -25.957031 C 11.316406 -26.273438 11.160156 -26.589844 11 -26.945312 C 10.960938 -27.027344 10.921875 -27.144531 10.84375 -27.261719 C 10.761719 -27.421875 10.566406 -27.539062 10.367188 -27.582031 C 10.25 -27.621094 10.128906 -27.660156 10.011719 -27.660156 C 9.617188 -27.660156 9.21875 -27.699219 8.824219 -27.699219 C 7.796875 -27.699219 6.804688 -27.699219 5.816406 -27.699219 C 5.34375 -27.699219 4.90625 -27.699219 4.472656 -27.582031 C 4.117188 -27.539062 3.757812 -27.5 3.402344 -27.5 C 3.164062 -27.460938 2.929688 -27.460938 2.691406 -27.421875 C 2.492188 -27.421875 2.296875 -27.382812 2.097656 -27.304688 C 1.9375 -27.222656 1.78125 -27.183594 1.660156 -27.105469 C 1.621094 -27.105469 1.582031 -27.066406 1.582031 -27.027344 C 1.464844 -26.945312 1.503906 -26.789062 1.582031 -26.710938 C 1.703125 -26.628906 1.859375 -26.550781 2.019531 -26.550781 C 2.492188 -26.550781 2.96875 -26.550781 3.441406 -26.511719 C 3.5625 -26.511719 3.679688 -26.472656 3.796875 -26.433594 C 3.917969 -26.433594 4.117188 -26.195312 4.117188 -26.078125 C 4.117188 -25.957031 4.117188 -25.839844 4.117188 -25.71875 C 4.117188 -24.929688 4.117188 -24.136719 4.117188 -23.308594 C 4.117188 -23.070312 4.074219 -22.832031 4.117188 -22.59375 C 4.234375 -22.078125 4.234375 -21.566406 4.273438 -21.050781 C 4.3125 -20.140625 4.273438 -19.269531 4.433594 -18.398438 C 4.472656 -18.28125 4.472656 -18.164062 4.472656 -18.042969 C 4.511719 -17.054688 4.550781 -16.105469 4.589844 -15.15625 C 4.589844 -14.5625 4.589844 -14.007812 4.667969 -13.453125 C 4.707031 -13.214844 4.707031 -12.980469 4.707031 -12.742188 C 4.75 -10.289062 4.789062 -7.835938 4.75 -5.382812 C 4.75 -4.75 4.75 -4.074219 4.75 -3.441406 C 4.75 -2.769531 4.628906 -2.097656 4.550781 -1.425781 C 4.511719 -1.1875 4.351562 -1.027344 4.195312 -0.949219 C 3.957031 -0.871094 3.71875 -0.75 3.523438 -0.710938 C 3.046875 -0.59375 2.570312 -0.433594 2.097656 -0.433594 C 1.976562 -0.433594 1.859375 -0.394531 1.742188 -0.355469 C 1.621094 -0.316406 1.542969 -0.238281 1.464844 -0.117188 C 1.425781 -0.0390625 1.386719 0.0390625 1.464844 0.117188 C 1.503906 0.160156 1.582031 0.238281 1.621094 0.238281 C 2.097656 0.316406 2.613281 0.277344 3.085938 0.277344 C 3.246094 0.238281 3.402344 0.238281 3.5625 0.199219 C 3.757812 0.117188 3.957031 0.117188 4.15625 0.078125 C 5.023438 0.078125 5.894531 0.078125 6.804688 0.078125 C 7.082031 0.078125 7.359375 0.117188 7.636719 0.117188 C 8.152344 0.277344 8.664062 0.277344 9.179688 0.277344 C 9.457031 0.277344 9.773438 0.238281 10.050781 0.238281 C 10.128906 0.238281 10.167969 0.199219 10.25 0.160156 C 10.445312 0.0390625 10.484375 -0.199219 10.328125 -0.355469 C 10.210938 -0.476562 10.089844 -0.554688 9.890625 -0.59375 C 9.695312 -0.632812 9.496094 -0.632812 9.300781 -0.632812 C 8.785156 -0.632812 8.269531 -0.75 7.753906 -0.871094 C 7.4375 -0.949219 7.164062 -1.109375 6.886719 -1.265625 C 6.765625 -1.34375 6.648438 -1.503906 6.648438 -1.660156 C 6.648438 -2.019531 6.648438 -2.375 6.648438 -2.769531 C 6.726562 -4.628906 6.726562 -6.527344 6.726562 -8.429688 C 6.726562 -10.167969 6.726562 -11.949219 6.726562 -13.730469 C 6.726562 -14.085938 6.726562 -14.441406 6.726562 -14.800781 C 6.648438 -16.660156 6.648438 -18.519531 6.648438 -20.339844 C 6.648438 -20.695312 6.6875 -21.011719 6.6875 -21.328125 C 6.6875 -21.40625 6.726562 -21.488281 6.765625 -21.527344 Z M 6.765625 -21.527344 "/></g></g></g><g fill="#ffffff" fill-opacity="1"><g transform="translate(177.785276, 276.334862)"><g><path d="M 15.351562 -27.621094 C 14.917969 -27.621094 14.441406 -27.621094 14.007812 -27.621094 C 13.808594 -27.621094 13.613281 -27.621094 13.414062 -27.582031 C 12.9375 -27.5 12.464844 -27.460938 11.988281 -27.460938 C 11.671875 -27.421875 11.355469 -27.421875 11.039062 -27.304688 C 10.921875 -27.304688 10.800781 -27.261719 10.683594 -27.261719 C 10.050781 -27.144531 9.417969 -26.945312 8.863281 -26.671875 C 8.429688 -26.472656 7.992188 -26.234375 7.558594 -26.035156 C 7.4375 -25.996094 7.320312 -25.917969 7.242188 -25.839844 C 6.609375 -25.445312 5.976562 -24.96875 5.421875 -24.453125 C 5.183594 -24.175781 4.945312 -23.898438 4.75 -23.625 C 4.433594 -23.148438 4.074219 -22.714844 3.757812 -22.238281 C 3.480469 -21.804688 3.285156 -21.328125 3.046875 -20.851562 C 2.96875 -20.617188 2.847656 -20.417969 2.730469 -20.179688 C 2.253906 -19.351562 1.898438 -18.480469 1.703125 -17.53125 C 1.703125 -17.449219 1.660156 -17.371094 1.621094 -17.292969 C 1.503906 -16.777344 1.386719 -16.261719 1.34375 -15.75 C 1.265625 -14.839844 1.226562 -13.890625 1.226562 -12.980469 C 1.226562 -12.742188 1.265625 -12.503906 1.304688 -12.265625 C 1.34375 -11.632812 1.464844 -11.078125 1.742188 -9.773438 C 1.78125 -9.417969 1.898438 -9.0625 2.058594 -8.746094 C 2.097656 -8.625 2.175781 -8.546875 2.214844 -8.429688 C 2.375 -7.835938 2.691406 -7.320312 2.96875 -6.765625 C 3.164062 -6.332031 3.441406 -5.933594 3.796875 -5.578125 C 4.074219 -5.300781 4.3125 -5.023438 4.628906 -4.707031 C 4.828125 -4.550781 5.023438 -4.351562 5.261719 -4.195312 C 5.699219 -3.878906 6.09375 -3.5625 6.449219 -3.164062 C 6.765625 -2.886719 7.121094 -2.613281 7.480469 -2.335938 C 8.152344 -1.898438 8.824219 -1.503906 9.535156 -1.109375 C 9.65625 -1.027344 9.734375 -0.988281 9.851562 -0.949219 C 10.484375 -0.671875 11.117188 -0.433594 11.753906 -0.160156 C 11.988281 -0.078125 12.1875 0 12.464844 0.0390625 C 12.621094 0.0390625 12.78125 0.078125 12.9375 0.117188 C 13.335938 0.238281 13.808594 0.238281 14.246094 0.277344 C 14.757812 0.277344 15.273438 0.277344 15.789062 0.238281 C 16.027344 0.238281 16.304688 0.238281 16.539062 0.199219 C 16.9375 0.117188 17.332031 0.078125 17.726562 0.0390625 C 18.28125 0 18.796875 -0.199219 19.351562 -0.316406 C 19.707031 -0.433594 20.0625 -0.515625 20.378906 -0.710938 C 20.578125 -0.832031 20.773438 -0.949219 21.011719 -1.027344 C 21.527344 -1.265625 22 -1.582031 22.4375 -1.9375 C 22.632812 -2.097656 22.871094 -2.296875 23.109375 -2.453125 C 23.820312 -2.96875 24.453125 -3.601562 25.007812 -4.273438 C 25.5625 -4.90625 26.078125 -5.578125 26.511719 -6.292969 C 26.671875 -6.527344 26.789062 -6.804688 26.90625 -7.042969 C 27.183594 -7.675781 27.34375 -8.347656 27.621094 -8.980469 C 27.816406 -9.457031 27.855469 -9.972656 27.976562 -10.484375 C 28.09375 -10.761719 28.054688 -11.039062 28.09375 -11.316406 C 28.09375 -11.554688 28.132812 -11.792969 28.214844 -12.027344 C 28.292969 -12.265625 28.292969 -12.503906 28.292969 -12.742188 C 28.292969 -13.453125 28.332031 -14.207031 28.292969 -14.917969 C 28.292969 -15.273438 28.292969 -15.628906 28.171875 -15.984375 C 28.132812 -16.144531 28.132812 -16.304688 28.09375 -16.460938 C 28.09375 -16.855469 27.976562 -17.253906 27.855469 -17.648438 C 27.539062 -18.953125 26.988281 -20.140625 26.234375 -21.25 C 25.839844 -21.882812 25.363281 -22.476562 24.890625 -23.109375 C 24.535156 -23.625 24.058594 -24.058594 23.582031 -24.492188 C 23.148438 -24.890625 22.671875 -25.285156 22.238281 -25.679688 C 21.804688 -26.035156 21.328125 -26.355469 20.8125 -26.628906 C 20.535156 -26.75 20.261719 -26.90625 19.984375 -27.027344 C 19.46875 -27.304688 18.914062 -27.460938 18.359375 -27.460938 C 18.042969 -27.460938 17.6875 -27.460938 17.371094 -27.539062 C 17.054688 -27.621094 16.738281 -27.621094 16.421875 -27.621094 C 16.066406 -27.621094 15.710938 -27.621094 15.351562 -27.621094 Z M 7.597656 -12.386719 C 7.597656 -12.820312 7.597656 -13.257812 7.636719 -13.691406 C 7.636719 -13.847656 7.636719 -14.007812 7.636719 -14.164062 C 7.796875 -14.878906 7.796875 -15.589844 7.835938 -16.34375 C 7.875 -16.738281 7.875 -17.132812 7.992188 -17.53125 C 8.113281 -17.925781 8.113281 -18.398438 8.230469 -18.835938 C 8.308594 -19.46875 8.46875 -20.0625 8.707031 -20.695312 C 8.902344 -21.488281 9.21875 -22.199219 9.535156 -22.949219 C 9.695312 -23.308594 9.890625 -23.664062 10.167969 -23.941406 C 10.25 -24.019531 10.289062 -24.058594 10.328125 -24.136719 C 10.644531 -24.613281 11.039062 -25.007812 11.515625 -25.324219 C 11.671875 -25.445312 11.832031 -25.601562 11.949219 -25.71875 C 12.304688 -25.996094 12.703125 -26.195312 13.136719 -26.3125 C 13.257812 -26.355469 13.375 -26.355469 13.492188 -26.394531 C 13.769531 -26.472656 14.046875 -26.472656 14.324219 -26.433594 C 14.441406 -26.433594 14.5625 -26.394531 14.679688 -26.355469 C 15.035156 -26.3125 15.394531 -26.273438 15.75 -26.234375 C 16.183594 -26.195312 16.621094 -26.078125 17.015625 -25.878906 C 17.410156 -25.71875 17.804688 -25.523438 18.203125 -25.285156 C 18.714844 -25.007812 19.152344 -24.691406 19.46875 -24.214844 C 19.746094 -23.820312 20.023438 -23.425781 20.261719 -22.988281 C 20.457031 -22.753906 20.578125 -22.4375 20.695312 -22.160156 C 21.011719 -21.40625 21.25 -20.65625 21.488281 -19.863281 C 21.605469 -19.546875 21.644531 -19.152344 21.722656 -18.835938 C 21.84375 -18.441406 21.882812 -18.042969 22 -17.648438 C 22.078125 -17.292969 22.121094 -16.9375 22.199219 -16.578125 C 22.316406 -16.144531 22.355469 -15.710938 22.4375 -15.273438 C 22.4375 -15.195312 22.476562 -15.117188 22.4375 -15.035156 C 22.4375 -14.246094 22.515625 -13.453125 22.398438 -12.621094 C 22.316406 -12.1875 22.316406 -11.753906 22.316406 -11.316406 C 22.277344 -10.484375 22.121094 -9.65625 21.921875 -8.824219 C 21.804688 -8.347656 21.683594 -7.875 21.566406 -7.398438 C 21.40625 -6.570312 21.128906 -5.699219 20.695312 -4.945312 C 20.417969 -4.390625 20.140625 -3.878906 19.824219 -3.363281 C 19.667969 -3.085938 19.46875 -2.808594 19.269531 -2.570312 C 18.953125 -2.136719 18.558594 -1.820312 18.042969 -1.621094 C 17.648438 -1.503906 17.292969 -1.386719 16.894531 -1.265625 C 16.738281 -1.226562 16.578125 -1.1875 16.421875 -1.1875 C 15.710938 -1.109375 14.996094 -1.148438 14.246094 -1.226562 C 13.890625 -1.226562 13.574219 -1.386719 13.214844 -1.464844 C 12.898438 -1.582031 12.621094 -1.703125 12.304688 -1.820312 C 12.148438 -1.898438 11.949219 -2.019531 11.792969 -2.136719 C 11.039062 -2.691406 10.367188 -3.324219 9.734375 -3.996094 C 9.574219 -4.15625 9.457031 -4.351562 9.339844 -4.589844 C 9.0625 -5.300781 8.707031 -5.976562 8.429688 -6.6875 C 8.347656 -6.84375 8.308594 -6.964844 8.308594 -7.121094 C 8.230469 -7.597656 8.070312 -7.992188 8.070312 -8.429688 C 8.03125 -8.546875 7.992188 -8.664062 7.953125 -8.785156 C 7.875 -9.023438 7.835938 -9.257812 7.835938 -9.496094 C 7.796875 -9.8125 7.753906 -10.128906 7.675781 -10.445312 C 7.636719 -10.605469 7.597656 -10.761719 7.597656 -10.921875 C 7.597656 -11.394531 7.597656 -11.871094 7.597656 -12.386719 Z M 7.597656 -12.386719 "/></g></g></g><g fill="#ffffff" fill-opacity="1"><g transform="translate(215.295767, 276.334862)"><g><path d="M 9.574219 -27.660156 C 9.574219 -27.699219 9.574219 -27.699219 9.574219 -27.699219 C 7.796875 -27.699219 6.054688 -27.699219 4.273438 -27.699219 C 3.878906 -27.699219 3.480469 -27.660156 3.085938 -27.660156 C 2.96875 -27.660156 2.847656 -27.660156 2.730469 -27.621094 C 2.570312 -27.582031 2.414062 -27.5 2.335938 -27.34375 C 2.296875 -27.222656 2.335938 -27.066406 2.414062 -27.027344 C 2.53125 -26.988281 2.652344 -26.90625 2.769531 -26.867188 C 2.847656 -26.828125 2.96875 -26.828125 3.085938 -26.789062 C 3.246094 -26.789062 3.441406 -26.75 3.601562 -26.75 C 3.917969 -26.671875 4.15625 -26.472656 4.390625 -26.234375 C 4.433594 -26.15625 4.472656 -26.078125 4.472656 -25.996094 C 4.472656 -25.878906 4.511719 -25.761719 4.511719 -25.640625 C 4.511719 -24.730469 4.472656 -23.78125 4.511719 -22.871094 C 4.550781 -20.617188 4.511719 -18.359375 4.511719 -16.144531 C 4.511719 -12.582031 4.472656 -9.0625 4.472656 -5.539062 C 4.472656 -4.984375 4.433594 -4.472656 4.433594 -3.957031 C 4.433594 -3.285156 4.351562 -2.613281 4.234375 -1.9375 C 4.195312 -1.78125 4.117188 -1.621094 3.996094 -1.503906 C 3.878906 -1.386719 3.71875 -1.226562 3.523438 -1.1875 C 3.285156 -1.070312 3.085938 -0.988281 2.808594 -0.949219 C 2.414062 -0.871094 2.058594 -0.710938 1.660156 -0.632812 C 1.503906 -0.59375 1.386719 -0.476562 1.265625 -0.394531 C 1.1875 -0.355469 1.148438 -0.277344 1.148438 -0.199219 C 1.1875 -0.117188 1.226562 -0.0390625 1.304688 0 C 1.386719 0.0390625 1.464844 0.078125 1.503906 0.078125 C 1.898438 0.078125 2.253906 0.078125 2.613281 0.078125 C 5.617188 0.0390625 8.625 0.0390625 11.632812 0 C 11.753906 0 11.871094 0 11.988281 0 C 12.265625 0 12.464844 -0.078125 12.703125 -0.199219 C 12.742188 -0.199219 12.742188 -0.238281 12.78125 -0.277344 C 12.859375 -0.316406 12.898438 -0.394531 12.820312 -0.476562 C 12.820312 -0.554688 12.742188 -0.59375 12.703125 -0.671875 C 12.347656 -0.75 11.988281 -0.871094 11.632812 -0.949219 C 11.355469 -0.988281 11.117188 -1.109375 10.84375 -1.226562 C 10.683594 -1.304688 10.527344 -1.425781 10.367188 -1.582031 C 10.289062 -1.660156 10.25 -1.78125 10.210938 -1.898438 C 10.167969 -2.296875 10.167969 -2.691406 10.089844 -3.085938 C 10.050781 -4.273438 10.050781 -5.421875 10.089844 -6.609375 C 10.167969 -7.042969 10.167969 -7.480469 10.210938 -7.914062 C 10.210938 -8.746094 10.210938 -9.574219 10.210938 -10.445312 C 10.210938 -10.644531 10.25 -10.84375 10.25 -11.039062 C 10.25 -11.238281 10.40625 -11.394531 10.605469 -11.4375 C 10.800781 -11.476562 11 -11.515625 11.199219 -11.515625 C 11.632812 -11.554688 12.027344 -11.554688 12.425781 -11.554688 C 12.664062 -11.554688 12.898438 -11.554688 13.136719 -11.632812 C 13.574219 -11.710938 14.007812 -11.753906 14.441406 -11.792969 C 14.640625 -11.832031 14.839844 -11.832031 15.035156 -11.910156 C 15.273438 -11.949219 15.511719 -11.988281 15.75 -12.027344 C 16.027344 -12.027344 16.304688 -12.070312 16.578125 -12.1875 C 16.777344 -12.226562 16.976562 -12.226562 17.171875 -12.265625 C 17.292969 -12.304688 17.410156 -12.304688 17.53125 -12.347656 C 18.359375 -12.582031 19.191406 -12.859375 19.941406 -13.335938 C 21.128906 -14.125 21.128906 -14.085938 22 -14.996094 C 22.277344 -15.3125 22.515625 -15.628906 22.714844 -15.984375 C 23.03125 -16.539062 23.308594 -17.132812 23.542969 -17.726562 C 23.625 -17.886719 23.703125 -18.082031 23.742188 -18.28125 C 23.78125 -18.558594 23.898438 -18.835938 23.898438 -19.113281 C 23.941406 -19.429688 23.941406 -19.746094 23.941406 -20.0625 C 23.941406 -20.261719 23.941406 -20.457031 23.941406 -20.65625 C 23.941406 -20.851562 23.898438 -21.050781 23.859375 -21.25 C 23.820312 -21.488281 23.78125 -21.722656 23.742188 -21.960938 C 23.664062 -22.4375 23.503906 -22.910156 23.308594 -23.347656 C 23.226562 -23.464844 23.1875 -23.542969 23.109375 -23.664062 C 22.671875 -24.175781 22.238281 -24.691406 21.804688 -25.207031 C 21.605469 -25.445312 21.40625 -25.640625 21.167969 -25.761719 C 20.894531 -25.917969 20.65625 -26.15625 20.378906 -26.3125 C 20.101562 -26.511719 19.824219 -26.671875 19.585938 -26.867188 C 19.351562 -26.988281 19.113281 -26.988281 18.875 -27.105469 C 18.835938 -27.105469 18.835938 -27.105469 18.796875 -27.144531 C 18.519531 -27.222656 18.242188 -27.34375 18.003906 -27.421875 C 17.726562 -27.5 17.449219 -27.5 17.132812 -27.5 C 17.015625 -27.539062 16.894531 -27.539062 16.777344 -27.582031 C 16.539062 -27.660156 16.222656 -27.660156 15.945312 -27.660156 C 15.589844 -27.660156 15.234375 -27.660156 14.878906 -27.660156 C 13.097656 -27.660156 11.355469 -27.660156 9.574219 -27.660156 Z M 10.210938 -18.992188 C 10.210938 -19.863281 10.210938 -20.695312 10.210938 -21.527344 C 10.210938 -22.714844 10.25 -23.859375 10.289062 -25.046875 C 10.289062 -25.125 10.289062 -25.207031 10.328125 -25.285156 C 10.367188 -25.640625 10.566406 -25.957031 11 -25.996094 C 11.117188 -25.996094 11.238281 -26.035156 11.355469 -26.035156 C 12.226562 -26.078125 13.136719 -26.078125 14.007812 -26.035156 C 14.125 -25.996094 14.246094 -25.996094 14.363281 -25.957031 C 14.878906 -25.839844 15.351562 -25.679688 15.828125 -25.484375 C 15.984375 -25.445312 16.105469 -25.324219 16.261719 -25.246094 C 16.660156 -24.851562 17.015625 -24.414062 17.332031 -23.941406 C 17.488281 -23.625 17.648438 -23.308594 17.804688 -22.988281 C 18.003906 -22.4375 18.242188 -21.921875 18.242188 -21.367188 C 18.242188 -21.289062 18.242188 -21.210938 18.28125 -21.128906 C 18.398438 -20.65625 18.398438 -20.179688 18.320312 -19.707031 C 18.28125 -19.585938 18.242188 -19.46875 18.242188 -19.351562 C 18.28125 -18.675781 18.003906 -18.082031 17.765625 -17.488281 C 17.371094 -16.660156 16.9375 -15.828125 16.382812 -15.074219 C 15.984375 -14.484375 15.472656 -13.96875 14.800781 -13.613281 C 14.679688 -13.574219 14.5625 -13.453125 14.402344 -13.375 C 13.730469 -13.019531 13.019531 -12.742188 12.226562 -12.703125 C 11.949219 -12.703125 11.671875 -12.703125 11.394531 -12.703125 C 11.117188 -12.664062 10.84375 -12.621094 10.566406 -12.582031 C 10.40625 -12.542969 10.25 -12.742188 10.25 -12.859375 C 10.25 -12.898438 10.25 -12.9375 10.25 -12.980469 C 10.25 -13.058594 10.25 -13.136719 10.25 -13.214844 C 10.210938 -15.15625 10.210938 -17.09375 10.210938 -18.992188 Z M 10.210938 -18.992188 "/></g></g></g><g fill="#ffffff" fill-opacity="1"><g transform="translate(247.702199, 276.334862)"><g><path d="M 3.917969 -1.226562 C 3.285156 -0.988281 2.613281 -0.871094 1.9375 -0.710938 C 1.742188 -0.632812 1.464844 -0.671875 1.226562 -0.632812 C 1.027344 -0.59375 0.871094 -0.515625 0.710938 -0.355469 C 0.632812 -0.316406 0.59375 -0.238281 0.632812 -0.160156 C 0.671875 -0.078125 0.710938 -0.0390625 0.792969 0 C 0.871094 0 0.949219 0.0390625 1.027344 0.0390625 C 1.34375 0.0390625 1.703125 0.0390625 2.019531 0.0390625 C 5.222656 0.0390625 8.429688 0.0390625 11.632812 0.0390625 C 11.910156 0.0390625 12.226562 0 12.503906 0 C 12.582031 0 12.621094 -0.0390625 12.703125 -0.0390625 C 12.859375 -0.078125 12.9375 -0.316406 12.859375 -0.433594 C 12.78125 -0.554688 12.703125 -0.632812 12.582031 -0.632812 C 11.988281 -0.710938 11.4375 -0.671875 10.882812 -0.832031 C 10.722656 -0.871094 10.566406 -0.832031 10.40625 -0.871094 C 10.089844 -0.871094 9.773438 -0.871094 9.457031 -0.871094 C 9.257812 -0.910156 9.0625 -0.910156 8.863281 -0.988281 C 8.546875 -1.109375 8.230469 -1.109375 7.953125 -1.265625 C 7.835938 -1.304688 7.714844 -1.386719 7.636719 -1.425781 C 7.320312 -1.660156 7.121094 -1.9375 7.121094 -2.335938 C 7.121094 -2.613281 7.121094 -2.886719 7.242188 -3.164062 C 7.359375 -3.601562 7.480469 -4.035156 7.558594 -4.472656 C 7.636719 -4.828125 7.753906 -5.144531 7.835938 -5.5 C 7.914062 -5.777344 8.03125 -6.015625 8.113281 -6.292969 C 8.191406 -6.609375 8.269531 -6.925781 8.429688 -7.203125 C 8.507812 -7.480469 8.507812 -7.753906 8.625 -8.03125 C 8.664062 -8.113281 8.707031 -8.152344 8.785156 -8.191406 C 8.902344 -8.269531 8.980469 -8.308594 9.101562 -8.308594 C 9.65625 -8.390625 10.167969 -8.390625 10.683594 -8.390625 C 11.277344 -8.390625 11.871094 -8.429688 12.464844 -8.507812 C 12.703125 -8.585938 12.980469 -8.585938 13.214844 -8.585938 C 14.800781 -8.625 16.421875 -8.707031 18.003906 -8.707031 C 18.359375 -8.707031 18.757812 -8.707031 19.113281 -8.785156 C 19.191406 -8.785156 19.269531 -8.785156 19.351562 -8.785156 C 19.546875 -8.785156 19.746094 -8.707031 19.863281 -8.546875 C 20.0625 -8.269531 20.21875 -7.992188 20.300781 -7.675781 C 20.578125 -6.84375 20.933594 -6.054688 21.210938 -5.183594 C 21.25 -5.066406 21.289062 -4.90625 21.328125 -4.75 C 21.40625 -4.3125 21.527344 -3.878906 21.683594 -3.441406 C 21.882812 -2.929688 22 -2.375 22.238281 -1.859375 C 22.277344 -1.742188 22.238281 -1.621094 22.199219 -1.542969 C 22.121094 -1.425781 22.078125 -1.304688 21.960938 -1.226562 C 21.761719 -1.109375 21.566406 -0.949219 21.328125 -0.910156 C 20.851562 -0.871094 20.378906 -0.710938 19.902344 -0.671875 C 19.824219 -0.671875 19.746094 -0.632812 19.667969 -0.632812 C 19.390625 -0.554688 19.351562 -0.199219 19.46875 -0.0390625 C 19.585938 0.117188 19.707031 0.160156 19.863281 0.238281 C 20.496094 0.277344 21.167969 0.277344 21.804688 0.199219 C 22.515625 0.117188 23.226562 0.117188 23.941406 0.078125 C 25.917969 0.078125 27.898438 0.078125 29.875 0.0390625 C 29.992188 0.0390625 30.113281 0.0390625 30.230469 0.0390625 C 30.46875 0.0390625 30.667969 -0.160156 30.746094 -0.394531 C 30.824219 -0.554688 30.707031 -0.832031 30.507812 -0.871094 C 30.230469 -0.949219 29.914062 -1.109375 29.597656 -1.109375 C 29.320312 -1.148438 29.042969 -1.265625 28.808594 -1.34375 C 28.449219 -1.464844 28.253906 -1.703125 28.09375 -2.019531 C 28.054688 -2.097656 28.015625 -2.214844 27.976562 -2.335938 C 27.539062 -3.402344 27.105469 -4.511719 26.789062 -5.617188 C 26.671875 -6.054688 26.511719 -6.449219 26.3125 -6.84375 C 26.234375 -7.042969 26.15625 -7.242188 26.117188 -7.398438 C 25.761719 -8.269531 25.402344 -9.140625 25.007812 -9.972656 C 24.808594 -10.328125 24.652344 -10.683594 24.492188 -11.039062 C 24.335938 -11.476562 24.136719 -11.871094 24.019531 -12.265625 C 23.898438 -12.664062 23.703125 -13.019531 23.542969 -13.375 C 23.542969 -13.414062 23.542969 -13.453125 23.503906 -13.492188 C 23.347656 -14.046875 23.1875 -14.5625 23.03125 -15.117188 C 22.671875 -16.261719 22.316406 -17.410156 21.804688 -18.519531 C 21.566406 -19.074219 21.328125 -19.625 21.128906 -20.179688 C 21.089844 -20.378906 21.011719 -20.578125 20.933594 -20.734375 C 20.617188 -21.644531 20.21875 -22.554688 19.941406 -23.464844 C 19.824219 -23.859375 19.667969 -24.214844 19.507812 -24.574219 C 19.308594 -24.96875 19.191406 -25.402344 18.953125 -25.800781 C 18.757812 -26.078125 18.675781 -26.472656 18.519531 -26.75 C 18.28125 -27.144531 17.964844 -27.382812 17.570312 -27.460938 C 17.449219 -27.460938 17.332031 -27.460938 17.214844 -27.460938 C 16.621094 -27.5 16.066406 -27.5 15.511719 -27.582031 C 15.3125 -27.621094 15.117188 -27.621094 14.917969 -27.621094 C 14.207031 -27.621094 13.453125 -27.660156 12.742188 -27.660156 C 12.464844 -27.660156 12.1875 -27.660156 11.910156 -27.582031 C 11.710938 -27.5 11.515625 -27.5 11.316406 -27.5 C 10.84375 -27.460938 10.367188 -27.421875 9.851562 -27.421875 C 9.734375 -27.382812 9.617188 -27.382812 9.496094 -27.34375 C 9.457031 -27.34375 9.378906 -27.261719 9.339844 -27.222656 C 9.257812 -27.144531 9.21875 -26.945312 9.300781 -26.867188 C 9.339844 -26.828125 9.417969 -26.75 9.457031 -26.75 C 9.695312 -26.710938 9.972656 -26.710938 10.210938 -26.710938 C 10.566406 -26.710938 10.921875 -26.710938 11.277344 -26.710938 C 11.515625 -26.671875 11.710938 -26.472656 11.753906 -26.234375 C 11.753906 -26.078125 11.753906 -25.957031 11.753906 -25.839844 C 11.753906 -25.523438 11.671875 -25.207031 11.632812 -24.890625 C 11.515625 -24.492188 11.4375 -24.136719 11.316406 -23.742188 C 11.199219 -23.386719 11.160156 -23.03125 11 -22.714844 C 10.921875 -22.355469 10.84375 -22 10.761719 -21.644531 C 10.644531 -21.128906 10.484375 -20.65625 10.328125 -20.140625 C 10.089844 -19.46875 9.851562 -18.796875 9.65625 -18.082031 C 9.339844 -16.9375 9.023438 -15.789062 8.625 -14.640625 C 8.625 -14.5625 8.585938 -14.484375 8.585938 -14.402344 C 8.546875 -13.929688 8.347656 -13.53125 8.230469 -13.097656 C 8.070312 -12.582031 7.914062 -12.027344 7.753906 -11.515625 C 7.597656 -11 7.4375 -10.527344 7.320312 -10.011719 C 7.320312 -9.890625 7.28125 -9.773438 7.242188 -9.65625 C 7.121094 -9.378906 7.042969 -9.140625 6.964844 -8.863281 C 6.332031 -7.003906 5.738281 -5.105469 5.105469 -3.246094 C 4.984375 -2.886719 4.867188 -2.492188 4.707031 -2.097656 C 4.667969 -1.9375 4.550781 -1.78125 4.390625 -1.621094 C 4.273438 -1.464844 4.117188 -1.34375 3.917969 -1.226562 Z M 13.136719 -9.773438 C 11.910156 -9.773438 10.84375 -9.773438 9.773438 -9.773438 C 9.65625 -9.773438 9.535156 -9.773438 9.417969 -9.851562 C 9.339844 -9.890625 9.257812 -9.933594 9.300781 -10.011719 C 9.300781 -10.128906 9.300781 -10.289062 9.339844 -10.367188 C 9.773438 -11.277344 10.011719 -12.265625 10.25 -13.214844 C 10.445312 -14.046875 10.683594 -14.878906 10.921875 -15.667969 C 11.277344 -16.699219 11.59375 -17.726562 11.988281 -18.714844 C 12.1875 -19.113281 12.226562 -19.546875 12.386719 -19.984375 C 12.464844 -20.261719 12.542969 -20.535156 12.621094 -20.773438 C 12.664062 -20.972656 12.742188 -21.167969 12.820312 -21.328125 C 12.980469 -21.644531 13.058594 -21.921875 13.136719 -22.238281 C 13.257812 -22.671875 13.335938 -23.109375 13.492188 -23.542969 C 13.492188 -23.582031 13.574219 -23.664062 13.652344 -23.703125 C 13.691406 -23.742188 13.769531 -23.742188 13.847656 -23.625 C 13.890625 -23.542969 13.96875 -23.425781 14.007812 -23.308594 C 14.125 -23.03125 14.246094 -22.753906 14.324219 -22.4375 C 14.441406 -22.078125 14.523438 -21.722656 14.640625 -21.367188 C 14.757812 -20.933594 14.917969 -20.457031 15.074219 -20.023438 C 15.273438 -19.546875 15.511719 -19.074219 15.75 -18.597656 C 15.867188 -18.320312 16.027344 -18.003906 16.144531 -17.726562 C 16.222656 -17.53125 16.34375 -17.371094 16.421875 -17.171875 C 16.621094 -16.5 16.976562 -15.867188 17.292969 -15.195312 C 17.488281 -14.679688 17.726562 -14.207031 17.964844 -13.652344 C 18.042969 -13.453125 18.121094 -13.214844 18.203125 -12.980469 C 18.398438 -12.226562 18.714844 -11.476562 19.03125 -10.761719 C 19.113281 -10.605469 19.191406 -10.484375 19.269531 -10.328125 C 19.308594 -10.210938 19.230469 -10.089844 19.113281 -10.050781 C 18.875 -10.050781 18.636719 -10.050781 18.398438 -10.050781 C 17.886719 -10.050781 17.371094 -10.011719 16.855469 -9.933594 C 16.699219 -9.890625 16.539062 -9.890625 16.382812 -9.890625 C 15.234375 -9.851562 14.125 -9.773438 13.136719 -9.773438 Z M 13.136719 -9.773438 "/></g></g></g><g fill="#ffffff" fill-opacity="1"><g transform="translate(287.032736, 276.334862)"><g><path d="M 4.234375 -12.820312 C 4.234375 -11.871094 4.234375 -10.921875 4.234375 -9.933594 C 4.234375 -8.625 4.234375 -7.28125 4.234375 -5.976562 C 4.234375 -4.628906 4.195312 -3.324219 4.195312 -1.976562 C 4.195312 -1.859375 4.195312 -1.742188 4.195312 -1.621094 C 4.15625 -1.464844 4.117188 -1.304688 4.035156 -1.1875 C 3.996094 -1.070312 3.917969 -0.949219 3.796875 -0.949219 C 3.324219 -0.792969 2.886719 -0.671875 2.375 -0.671875 C 2.214844 -0.671875 2.058594 -0.632812 1.898438 -0.632812 C 1.820312 -0.59375 1.742188 -0.59375 1.660156 -0.554688 C 1.503906 -0.515625 1.386719 -0.433594 1.304688 -0.277344 C 1.226562 -0.160156 1.265625 0 1.34375 0 C 1.464844 0.0390625 1.582031 0.078125 1.703125 0.078125 C 2.53125 0.078125 3.324219 0.117188 4.117188 0.117188 C 4.390625 0.117188 4.667969 0.160156 4.945312 0.199219 C 5.34375 0.238281 5.699219 0.238281 6.054688 0.238281 C 8.347656 0.238281 10.605469 0.277344 12.898438 0.277344 C 13.375 0.277344 13.890625 0.238281 14.363281 0.199219 C 15.035156 0.078125 15.710938 0.078125 16.382812 -0.117188 C 16.621094 -0.199219 16.9375 -0.160156 17.214844 -0.277344 C 17.488281 -0.355469 17.804688 -0.433594 18.121094 -0.515625 C 18.320312 -0.59375 18.519531 -0.632812 18.675781 -0.75 C 19.074219 -0.910156 19.390625 -1.109375 19.785156 -1.265625 C 20.140625 -1.425781 20.535156 -1.542969 20.894531 -1.703125 C 22.316406 -2.375 23.542969 -3.363281 24.652344 -4.511719 C 24.730469 -4.628906 24.851562 -4.75 24.929688 -4.867188 C 25.046875 -5.023438 25.167969 -5.222656 25.246094 -5.382812 C 25.5625 -5.855469 25.800781 -6.371094 26.078125 -6.84375 C 26.234375 -7.242188 26.3125 -7.636719 26.472656 -7.992188 C 26.671875 -8.507812 26.75 -9.0625 26.90625 -9.617188 C 26.945312 -9.890625 26.945312 -10.167969 26.988281 -10.445312 C 27.105469 -11.039062 27.183594 -11.632812 27.222656 -12.265625 C 27.222656 -12.425781 27.261719 -12.582031 27.304688 -12.742188 C 27.382812 -13.058594 27.382812 -13.375 27.382812 -13.691406 C 27.382812 -14.285156 27.382812 -14.878906 27.382812 -15.472656 C 27.382812 -15.589844 27.382812 -15.75 27.34375 -15.828125 C 27.183594 -16.34375 27.222656 -16.894531 27.027344 -17.371094 C 26.988281 -17.488281 26.945312 -17.609375 26.945312 -17.726562 C 26.90625 -18.164062 26.710938 -18.558594 26.628906 -18.992188 C 26.394531 -19.746094 26.117188 -20.457031 25.878906 -21.167969 C 25.679688 -21.605469 25.445312 -22.039062 25.167969 -22.4375 C 24.96875 -22.714844 24.769531 -23.03125 24.574219 -23.347656 C 24.492188 -23.464844 24.414062 -23.582031 24.296875 -23.703125 C 24.019531 -23.941406 23.742188 -24.175781 23.464844 -24.414062 C 22.871094 -24.890625 22.277344 -25.363281 21.683594 -25.839844 C 21.167969 -26.273438 20.617188 -26.550781 19.984375 -26.75 C 19.390625 -26.945312 18.714844 -26.988281 18.121094 -27.183594 C 17.488281 -27.222656 16.855469 -27.421875 16.222656 -27.539062 C 15.90625 -27.660156 15.589844 -27.660156 15.273438 -27.660156 C 14.125 -27.738281 12.9375 -27.699219 11.792969 -27.582031 C 11.554688 -27.539062 11.316406 -27.5 11.078125 -27.5 C 10.800781 -27.5 10.527344 -27.5 10.210938 -27.5 C 7.796875 -27.5 5.34375 -27.5 2.886719 -27.5 C 2.613281 -27.5 2.335938 -27.5 2.019531 -27.5 C 1.859375 -27.460938 1.742188 -27.421875 1.582031 -27.34375 C 1.503906 -27.261719 1.464844 -27.222656 1.464844 -27.144531 C 1.386719 -26.988281 1.503906 -26.789062 1.621094 -26.75 C 1.742188 -26.75 1.859375 -26.710938 1.976562 -26.710938 C 2.296875 -26.671875 2.613281 -26.671875 2.96875 -26.671875 C 3.164062 -26.628906 3.324219 -26.589844 3.523438 -26.472656 C 3.757812 -26.3125 3.957031 -26.117188 3.996094 -25.839844 C 4.074219 -25.402344 4.117188 -24.96875 4.195312 -24.535156 C 4.234375 -24.335938 4.273438 -24.136719 4.273438 -23.941406 C 4.273438 -23.503906 4.3125 -23.109375 4.3125 -22.714844 C 4.3125 -21.050781 4.351562 -19.429688 4.273438 -17.765625 C 4.234375 -16.738281 4.234375 -15.710938 4.234375 -14.640625 C 4.234375 -14.046875 4.234375 -13.453125 4.234375 -12.820312 Z M 21.605469 -13.769531 C 21.605469 -13.257812 21.605469 -12.78125 21.605469 -12.304688 C 21.566406 -11.910156 21.566406 -11.515625 21.488281 -11.117188 C 21.40625 -10.761719 21.40625 -10.40625 21.40625 -10.050781 C 21.367188 -9.773438 21.328125 -9.574219 21.289062 -9.339844 C 21.210938 -9.140625 21.210938 -8.941406 21.167969 -8.746094 C 21.128906 -8.585938 21.128906 -8.429688 21.050781 -8.269531 C 20.933594 -8.03125 20.894531 -7.796875 20.8125 -7.597656 C 20.734375 -7.28125 20.65625 -6.964844 20.535156 -6.648438 C 20.457031 -6.410156 20.300781 -6.132812 20.179688 -5.894531 C 20.140625 -5.777344 20.101562 -5.660156 20.0625 -5.578125 C 19.785156 -5.183594 19.546875 -4.75 19.351562 -4.3125 C 19.03125 -3.5625 18.519531 -2.929688 17.964844 -2.375 C 17.886719 -2.296875 17.847656 -2.253906 17.765625 -2.175781 C 17.449219 -1.820312 17.015625 -1.582031 16.578125 -1.425781 C 16.34375 -1.34375 16.105469 -1.265625 15.867188 -1.226562 C 15.75 -1.1875 15.628906 -1.148438 15.511719 -1.148438 C 15.273438 -1.148438 15.035156 -1.148438 14.800781 -1.109375 C 14.601562 -1.109375 14.402344 -1.109375 14.207031 -1.070312 C 13.574219 -0.949219 12.9375 -0.949219 12.265625 -0.949219 C 11.554688 -0.949219 10.84375 -0.949219 10.128906 -0.988281 C 9.972656 -0.988281 9.8125 -1.148438 9.8125 -1.304688 C 9.8125 -1.386719 9.8125 -1.464844 9.8125 -1.542969 C 9.8125 -1.703125 9.8125 -1.859375 9.8125 -2.019531 C 9.8125 -4.234375 9.851562 -6.449219 9.890625 -8.625 C 9.890625 -9.851562 9.890625 -11.039062 9.890625 -12.265625 C 9.890625 -13.730469 9.890625 -15.234375 9.890625 -16.699219 C 9.890625 -17.015625 9.933594 -17.332031 9.972656 -17.6875 C 10.011719 -18.164062 10.050781 -18.636719 10.089844 -19.113281 C 10.089844 -19.546875 10.128906 -19.984375 10.210938 -20.417969 C 10.289062 -20.734375 10.25 -21.050781 10.25 -21.367188 C 10.25 -22.671875 10.25 -23.941406 10.25 -25.246094 C 10.25 -25.445312 10.25 -25.640625 10.289062 -25.839844 C 10.289062 -25.917969 10.289062 -25.996094 10.289062 -26.078125 C 10.328125 -26.195312 10.40625 -26.273438 10.527344 -26.355469 C 10.605469 -26.394531 10.683594 -26.433594 10.761719 -26.433594 C 11.355469 -26.511719 11.949219 -26.511719 12.542969 -26.628906 C 13.097656 -26.671875 13.652344 -26.710938 14.246094 -26.589844 C 14.441406 -26.550781 14.640625 -26.511719 14.839844 -26.511719 C 15.351562 -26.511719 15.867188 -26.355469 16.382812 -26.273438 C 16.9375 -26.117188 17.410156 -25.878906 17.847656 -25.484375 C 18.320312 -25.046875 18.675781 -24.535156 19.074219 -24.019531 C 19.113281 -23.941406 19.152344 -23.859375 19.191406 -23.820312 C 19.308594 -23.582031 19.429688 -23.386719 19.507812 -23.148438 C 19.902344 -22.238281 20.300781 -21.289062 20.65625 -20.378906 C 20.734375 -20.179688 20.8125 -20.023438 20.894531 -19.824219 C 21.167969 -19.152344 21.328125 -18.441406 21.367188 -17.726562 C 21.40625 -17.214844 21.40625 -16.660156 21.527344 -16.144531 C 21.605469 -15.90625 21.605469 -15.589844 21.605469 -15.3125 C 21.605469 -14.800781 21.605469 -14.285156 21.605469 -13.769531 Z M 21.605469 -13.769531 "/></g></g></g><g clip-path="url(#6cc0d384a6)"><path fill="#ffffff" d="M 224.140625 203.261719 C 216.945312 203.246094 213.011719 205.75 209.410156 208.042969 C 205.164062 210.746094 201.355469 213.167969 193.472656 211.175781 C 193.304688 211.132812 192.828125 210.976562 192.109375 210.746094 C 188.074219 209.441406 176.195312 205.605469 169.445312 205.523438 C 166.132812 205.480469 164.917969 206.183594 164.90625 207.238281 C 164.878906 209.554688 169.492188 213.613281 172.222656 216.011719 C 172.9375 216.640625 173.527344 217.15625 173.902344 217.53125 C 176.5 220.136719 177.375 222.597656 177.066406 224.394531 C 176.898438 225.371094 176.390625 226.152344 175.621094 226.675781 C 174.875 227.175781 173.890625 227.425781 172.738281 227.34375 C 169.886719 227.144531 165.921875 224.902344 162.121094 219.472656 C 160.898438 217.730469 159.703125 216.03125 158.433594 214.886719 C 157.242188 213.808594 155.976562 213.21875 154.539062 213.570312 C 152.269531 214.125 151.945312 216.246094 151.589844 218.585938 C 151.195312 221.171875 150.765625 223.992188 147.925781 225.675781 C 145.347656 227.207031 143.183594 226.816406 140.957031 226.417969 C 139.285156 226.117188 137.574219 225.808594 135.648438 226.398438 C 133.707031 226.996094 131.691406 227.535156 129.640625 227.816406 C 127.839844 228.0625 126.019531 228.105469 124.199219 227.808594 L 124.789062 226.917969 C 126.363281 227.125 127.945312 227.070312 129.507812 226.859375 C 131.5 226.585938 133.46875 226.054688 135.367188 225.472656 C 137.511719 224.816406 139.34375 225.148438 141.125 225.46875 C 143.171875 225.835938 145.160156 226.191406 147.433594 224.84375 C 149.878906 223.394531 150.269531 220.808594 150.628906 218.441406 C 151.039062 215.765625 151.40625 213.339844 154.3125 212.628906 C 156.121094 212.1875 157.660156 212.882812 159.082031 214.167969 C 160.429688 215.386719 161.660156 217.132812 162.914062 218.921875 C 166.519531 224.074219 170.195312 226.195312 172.800781 226.378906 C 173.730469 226.441406 174.511719 226.253906 175.082031 225.871094 C 175.628906 225.5 175.988281 224.9375 176.109375 224.230469 C 176.371094 222.714844 175.566406 220.570312 173.214844 218.214844 C 172.886719 217.886719 172.300781 217.367188 171.582031 216.738281 L 171.585938 216.738281 C 168.730469 214.230469 163.902344 209.988281 163.9375 207.226562 C 163.960938 205.59375 165.4375 204.507812 169.457031 204.554688 C 176.355469 204.640625 188.335938 208.511719 192.402344 209.824219 C 193.09375 210.046875 193.550781 210.195312 193.707031 210.234375 C 201.191406 212.125 204.832031 209.808594 208.890625 207.230469 C 211.175781 205.773438 213.59375 204.234375 216.859375 203.269531 C 219.277344 202.554688 222.476562 202.351562 224.140625 203.261719 " fill-opacity="1" fill-rule="nonzero"/></g><g clip-path="url(#3f76b72a48)"><path fill="#ffffff" d="M 134.902344 211.699219 C 130.675781 207.148438 133.152344 197.195312 134.671875 191.441406 C 136.765625 184.078125 139.265625 177.46875 141.925781 172.503906 C 146.199219 169.929688 163.621094 163.101562 176.222656 141.300781 L 161.277344 148 C 179.695312 135.859375 192.117188 112.960938 215.109375 100.582031 C 215.109375 100.582031 199.527344 101.3125 191.257812 107.097656 C 191.257812 107.097656 200.929688 98.882812 225.351562 95.296875 L 216.226562 90.777344 L 228.671875 92.398438 C 228.671875 92.398438 234.722656 77.789062 250.890625 72.425781 C 250.890625 72.425781 193.4375 59.03125 174.152344 103.167969 C 174.152344 103.167969 177.613281 92.234375 182.917969 82.8125 C 182.917969 82.8125 155.90625 88.582031 142.9375 125.488281 C 142.9375 125.488281 146.050781 110.339844 149.34375 103.589844 C 149.34375 103.589844 132.742188 118.433594 133.441406 147.84375 C 133.441406 147.84375 129.601562 137.933594 130.625 129.683594 C 130.625 129.683594 117.246094 147.890625 133.832031 168.640625 C 136.003906 163.800781 157.136719 114.582031 189.714844 97.738281 C 150.820312 126.503906 129.261719 180.558594 124.199219 227.808594 L 134.902344 211.699219 " fill-opacity="1" fill-rule="evenodd"/></g></svg>