<svg xmlns="http://www.w3.org/2000/svg" xmlns:xlink="http://www.w3.org/1999/xlink" width="500" zoomAndPan="magnify" viewBox="0 0 375 374.999991" height="500" preserveAspectRatio="xMidYMid meet" version="1.0"><defs><clipPath id="48632993a8"><path d="M 90.3125 269 L 243.539062 269 L 243.539062 308.175781 L 90.3125 308.175781 Z M 90.3125 269 " clip-rule="nonzero"/></clipPath><clipPath id="4c26d0929b"><path d="M 90.3125 66.78125 L 284.457031 66.78125 L 284.457031 307.890625 L 90.3125 307.890625 Z M 90.3125 66.78125 " clip-rule="nonzero"/></clipPath></defs><g clip-path="url(#48632993a8)"><path fill="#ffffff" d="M 243.46875 270.21875 C 232.441406 270.195312 226.414062 274.035156 220.890625 277.550781 C 214.386719 281.691406 208.550781 285.40625 196.46875 282.351562 C 196.214844 282.285156 195.484375 282.050781 194.382812 281.695312 C 188.195312 279.695312 169.992188 273.816406 159.652344 273.683594 C 154.578125 273.621094 152.714844 274.695312 152.695312 276.316406 C 152.652344 279.871094 159.726562 286.09375 163.90625 289.765625 L 163.910156 289.765625 C 165.003906 290.730469 165.910156 291.523438 166.480469 292.097656 C 170.460938 296.09375 171.804688 299.867188 171.328125 302.621094 C 171.070312 304.117188 170.296875 305.320312 169.117188 306.117188 C 167.972656 306.890625 166.460938 307.269531 164.699219 307.144531 C 160.328125 306.839844 154.25 303.398438 148.425781 295.078125 C 146.550781 292.40625 144.71875 289.796875 142.777344 288.042969 C 140.953125 286.390625 139.011719 285.484375 136.808594 286.027344 C 133.332031 286.875 132.835938 290.128906 132.289062 293.714844 C 131.6875 297.679688 131.027344 302.003906 126.671875 304.589844 C 122.722656 306.9375 119.410156 306.339844 115.996094 305.726562 C 113.433594 305.265625 110.808594 304.792969 107.859375 305.695312 C 104.886719 306.609375 101.792969 307.4375 98.652344 307.871094 C 95.894531 308.246094 93.101562 308.3125 90.3125 307.855469 L 91.21875 306.492188 C 93.628906 306.808594 96.054688 306.726562 98.453125 306.398438 C 101.503906 305.980469 104.523438 305.167969 107.429688 304.277344 C 110.714844 303.269531 113.519531 303.773438 116.253906 304.265625 C 119.390625 304.832031 122.433594 305.378906 125.917969 303.308594 C 129.664062 301.089844 130.265625 297.125 130.820312 293.496094 C 131.441406 289.390625 132.007812 285.667969 136.460938 284.582031 C 139.230469 283.90625 141.59375 284.972656 143.773438 286.941406 C 145.839844 288.808594 147.71875 291.488281 149.640625 294.230469 C 155.167969 302.128906 160.800781 305.386719 164.796875 305.664062 C 166.21875 305.761719 167.414062 305.472656 168.289062 304.882812 C 169.125 304.316406 169.679688 303.453125 169.867188 302.371094 C 170.265625 300.046875 169.03125 296.757812 165.425781 293.144531 C 164.925781 292.644531 164.027344 291.847656 162.925781 290.882812 L 162.929688 290.882812 C 158.554688 287.039062 151.160156 280.535156 151.210938 276.296875 C 151.246094 273.796875 153.507812 272.128906 159.671875 272.203125 C 170.242188 272.335938 188.597656 278.265625 194.832031 280.28125 C 195.890625 280.621094 196.59375 280.847656 196.828125 280.910156 C 208.296875 283.8125 213.878906 280.257812 220.097656 276.300781 C 223.601562 274.066406 227.308594 271.710938 232.308594 270.230469 C 236.015625 269.136719 240.921875 268.820312 243.46875 270.21875 " fill-opacity="1" fill-rule="nonzero"/></g><g clip-path="url(#4c26d0929b)"><path fill="#ffffff" d="M 106.71875 283.15625 C 100.242188 276.179688 104.035156 260.917969 106.363281 252.09375 C 109.574219 240.804688 113.402344 230.667969 117.480469 223.058594 C 124.03125 219.109375 150.726562 208.636719 170.035156 175.214844 L 147.132812 185.484375 C 175.359375 166.871094 194.398438 131.757812 229.625 112.773438 C 229.625 112.773438 205.753906 113.898438 193.074219 122.769531 C 193.074219 122.769531 207.898438 110.171875 245.324219 104.671875 L 231.339844 97.742188 L 250.410156 100.226562 C 250.410156 100.226562 259.683594 77.824219 284.460938 69.605469 C 284.460938 69.605469 196.417969 49.066406 166.863281 116.742188 C 166.863281 116.742188 172.171875 99.980469 180.296875 85.53125 C 180.296875 85.53125 138.902344 94.375 119.03125 150.964844 C 119.03125 150.964844 123.796875 127.742188 128.847656 117.386719 C 128.847656 117.386719 103.410156 140.148438 104.476562 185.242188 C 104.476562 185.242188 98.59375 170.050781 100.160156 157.398438 C 100.160156 157.398438 79.65625 185.316406 105.078125 217.132812 C 108.402344 209.707031 140.789062 134.246094 190.710938 108.417969 C 131.109375 152.523438 98.074219 235.40625 90.3125 307.855469 L 106.71875 283.15625 " fill-opacity="1" fill-rule="evenodd"/></g></svg>