<svg xmlns="http://www.w3.org/2000/svg" xmlns:xlink="http://www.w3.org/1999/xlink" width="180" zoomAndPan="magnify" viewBox="0 0 375 374.999991" height="50" preserveAspectRatio="xMidYMid meet" version="1.0"><defs><g/><clipPath id="2fa87f142c"><path d="M 23.921875 218.621094 L 82.496094 218.621094 L 82.496094 233.609375 L 23.921875 233.609375 Z M 23.921875 218.621094 " clip-rule="nonzero"/></clipPath><clipPath id="9dd5ea7dfe"><path d="M 23.921875 141.402344 L 98.136719 141.402344 L 98.136719 233.5 L 23.921875 233.5 Z M 23.921875 141.402344 " clip-rule="nonzero"/></clipPath></defs><g clip-path="url(#2fa87f142c)"><path fill="#ffffff" d="M 82.46875 219.113281 C 78.253906 219.101562 75.949219 220.570312 73.839844 221.914062 C 71.351562 223.496094 69.121094 224.914062 64.5 223.746094 C 64.40625 223.722656 64.125 223.632812 63.703125 223.496094 C 61.339844 222.730469 54.382812 220.484375 50.429688 220.4375 C 48.488281 220.410156 47.773438 220.824219 47.769531 221.441406 C 47.75 222.796875 50.457031 225.175781 52.054688 226.578125 C 52.472656 226.949219 52.820312 227.25 53.039062 227.46875 C 54.558594 228.996094 55.074219 230.4375 54.890625 231.488281 C 54.792969 232.0625 54.496094 232.519531 54.046875 232.824219 C 53.609375 233.121094 53.03125 233.265625 52.355469 233.21875 C 50.683594 233.101562 48.363281 231.785156 46.136719 228.609375 C 45.421875 227.585938 44.71875 226.589844 43.976562 225.921875 C 43.28125 225.289062 42.539062 224.941406 41.695312 225.148438 C 40.367188 225.472656 40.175781 226.71875 39.96875 228.085938 C 39.738281 229.601562 39.484375 231.253906 37.820312 232.242188 C 36.308594 233.136719 35.042969 232.910156 33.738281 232.675781 C 32.757812 232.5 31.757812 232.320312 30.628906 232.664062 C 29.492188 233.011719 28.308594 233.328125 27.109375 233.492188 C 26.054688 233.636719 24.988281 233.664062 23.921875 233.488281 L 24.265625 232.96875 C 25.1875 233.089844 26.113281 233.058594 27.03125 232.933594 C 28.199219 232.773438 29.351562 232.460938 30.464844 232.121094 C 31.71875 231.738281 32.792969 231.929688 33.839844 232.117188 C 35.035156 232.332031 36.199219 232.542969 37.53125 231.753906 C 38.964844 230.902344 39.195312 229.390625 39.40625 228.003906 C 39.644531 226.4375 39.859375 225.011719 41.5625 224.597656 C 42.621094 224.339844 43.523438 224.746094 44.359375 225.5 C 45.148438 226.214844 45.867188 227.234375 46.601562 228.285156 C 48.714844 231.300781 50.867188 232.546875 52.394531 232.652344 C 52.9375 232.6875 53.394531 232.578125 53.730469 232.351562 C 54.046875 232.136719 54.261719 231.808594 54.332031 231.394531 C 54.484375 230.507812 54.011719 229.25 52.636719 227.867188 C 52.445312 227.675781 52.101562 227.375 51.679688 227.003906 C 50.007812 225.535156 47.179688 223.050781 47.203125 221.433594 C 47.214844 220.476562 48.078125 219.839844 50.433594 219.871094 C 54.476562 219.921875 61.492188 222.1875 63.875 222.957031 C 64.28125 223.085938 64.546875 223.171875 64.640625 223.195312 C 69.023438 224.304688 71.15625 222.949219 73.535156 221.433594 C 74.875 220.582031 76.289062 219.679688 78.203125 219.117188 C 79.621094 218.699219 81.496094 218.578125 82.46875 219.113281 " fill-opacity="1" fill-rule="nonzero"/></g><g clip-path="url(#9dd5ea7dfe)"><path fill="#ffffff" d="M 30.191406 224.054688 C 27.714844 221.390625 29.164062 215.558594 30.054688 212.1875 C 31.285156 207.875 32.746094 204.003906 34.304688 201.097656 C 36.808594 199.589844 47.015625 195.589844 54.398438 182.820312 L 45.640625 186.746094 C 56.433594 179.632812 63.710938 166.222656 77.175781 158.96875 C 77.175781 158.96875 68.050781 159.398438 63.203125 162.789062 C 63.203125 162.789062 68.871094 157.976562 83.179688 155.875 L 77.832031 153.226562 L 85.121094 154.175781 C 85.121094 154.175781 88.667969 145.621094 98.136719 142.480469 C 98.136719 142.480469 64.480469 134.632812 53.183594 160.484375 C 53.183594 160.484375 55.214844 154.082031 58.320312 148.5625 C 58.320312 148.5625 42.496094 151.941406 34.898438 173.558594 C 34.898438 173.558594 36.722656 164.6875 38.652344 160.734375 C 38.652344 160.734375 28.925781 169.425781 29.335938 186.652344 C 29.335938 186.652344 27.085938 180.847656 27.683594 176.015625 C 27.683594 176.015625 19.847656 186.679688 29.566406 198.832031 C 30.835938 195.996094 43.214844 167.171875 62.300781 157.304688 C 39.515625 174.15625 26.886719 205.8125 23.921875 233.488281 L 30.191406 224.054688 " fill-opacity="1" fill-rule="evenodd"/></g><g fill="#ffffff" fill-opacity="1"><g transform="translate(84.194253, 201.28869)"><g><path d="M 46.484375 2.734375 C 44.679688 2.734375 43.625 1.78125 43.3125 -0.125 C 42.914062 -2.550781 42.519531 -5.960938 42.125 -10.359375 L 41 -20.578125 C 40.78125 -22.097656 40.410156 -23.582031 39.890625 -25.03125 C 39.140625 -27.019531 38.320312 -28.015625 37.4375 -28.015625 C 36.625 -28.015625 35.109375 -27.320312 32.890625 -25.9375 C 30.773438 -24.65625 29.390625 -23.628906 28.734375 -22.859375 C 28.710938 -20.796875 28.769531 -18.726562 28.90625 -16.65625 L 29.890625 -7.84375 C 30.304688 -4.375 30.515625 -1.503906 30.515625 0.765625 C 30.515625 1.722656 30.210938 2.515625 29.609375 3.140625 C 29.003906 3.773438 28.226562 4.09375 27.28125 4.09375 C 26.332031 4.09375 25.554688 3.773438 24.953125 3.140625 C 24.347656 2.515625 24.046875 1.722656 24.046875 0.765625 C 24.046875 -1.898438 23.773438 -5.832031 23.234375 -11.03125 C 22.703125 -16.238281 22.4375 -20.171875 22.4375 -22.828125 C 22.4375 -25.160156 22.101562 -26.972656 21.4375 -28.265625 C 19.90625 -27.566406 18.347656 -26.425781 16.765625 -24.84375 L 12.859375 -20.484375 C 12.515625 -19.953125 11.957031 -19.257812 11.1875 -18.40625 C 11.1875 -17.082031 11.0625 -15.132812 10.8125 -12.5625 C 10.570312 -9.988281 10.453125 -8.085938 10.453125 -6.859375 C 10.453125 -6.203125 10.554688 -5.28125 10.765625 -4.09375 C 10.972656 -2.90625 11.078125 -2.046875 11.078125 -1.515625 C 11.078125 -0.617188 10.742188 0.132812 10.078125 0.75 C 9.410156 1.375 8.625 1.6875 7.71875 1.6875 C 5.226562 1.6875 3.984375 -1.140625 3.984375 -6.796875 C 3.984375 -8.117188 4.101562 -10.085938 4.34375 -12.703125 C 4.59375 -15.316406 4.71875 -17.285156 4.71875 -18.609375 C 4.71875 -19.773438 4.613281 -21.519531 4.40625 -23.84375 C 4.195312 -26.175781 4.09375 -27.9375 4.09375 -29.125 C 4.09375 -34.125 5.210938 -36.625 7.453125 -36.625 C 8.316406 -36.625 9.101562 -36.25 9.8125 -35.5 C 10.53125 -34.75 10.890625 -33.9375 10.890625 -33.0625 C 10.890625 -32.632812 10.832031 -31.984375 10.71875 -31.109375 C 10.613281 -30.234375 10.5625 -29.5625 10.5625 -29.09375 L 10.625 -25.640625 C 11.769531 -27.984375 13.453125 -30.109375 15.671875 -32.015625 C 17.890625 -33.921875 19.78125 -34.875 21.34375 -34.875 C 24.800781 -34.875 27.175781 -33.15625 28.46875 -29.71875 C 29.675781 -31.320312 31.113281 -32.523438 32.78125 -33.328125 C 34.457031 -34.140625 36.375 -34.546875 38.53125 -34.546875 C 42.207031 -34.546875 44.710938 -32.566406 46.046875 -28.609375 C 46.316406 -27.816406 46.769531 -24.722656 47.40625 -19.328125 C 48.019531 -15.546875 48.8125 -9.242188 49.78125 -0.421875 C 49.84375 0.453125 49.546875 1.195312 48.890625 1.8125 C 48.234375 2.425781 47.429688 2.734375 46.484375 2.734375 Z M 46.484375 2.734375 "/></g></g></g><g fill="#ffffff" fill-opacity="1"><g transform="translate(133.285389, 201.28869)"><g><path d="M 19.984375 1.515625 C 15.015625 1.515625 10.992188 0.273438 7.921875 -2.203125 C 4.554688 -4.953125 2.875 -8.800781 2.875 -13.75 C 2.875 -19.46875 4.257812 -24.265625 7.03125 -28.140625 C 10.039062 -32.359375 14.0625 -34.46875 19.09375 -34.46875 C 22.75 -34.46875 25.734375 -33.851562 28.046875 -32.625 C 30.878906 -31.101562 32.296875 -28.773438 32.296875 -25.640625 C 32.296875 -23.429688 31.050781 -21.425781 28.5625 -19.625 C 27.46875 -18.832031 25.140625 -17.601562 21.578125 -15.9375 L 8.96875 -9.96875 C 10.207031 -8.132812 11.742188 -6.753906 13.578125 -5.828125 C 15.410156 -4.910156 17.546875 -4.453125 19.984375 -4.453125 C 21.503906 -4.453125 23.289062 -4.738281 25.34375 -5.3125 C 27.9375 -6.039062 29.601562 -6.992188 30.34375 -8.171875 C 31.09375 -9.347656 31.898438 -9.9375 32.765625 -9.9375 C 33.523438 -9.9375 34.207031 -9.644531 34.8125 -9.0625 C 35.425781 -8.476562 35.734375 -7.800781 35.734375 -7.03125 C 35.734375 -4.582031 33.765625 -2.476562 29.828125 -0.71875 C 26.460938 0.769531 23.179688 1.515625 19.984375 1.515625 Z M 19.09375 -28.53125 C 16.414062 -28.53125 14.1875 -27.488281 12.40625 -25.40625 C 10.625 -23.332031 9.289062 -20.207031 8.40625 -16.03125 L 18.546875 -20.84375 C 22.523438 -22.78125 25.359375 -24.460938 27.046875 -25.890625 C 25.160156 -27.648438 22.507812 -28.53125 19.09375 -28.53125 Z M 19.09375 -28.53125 "/></g></g></g><g fill="#ffffff" fill-opacity="1"><g transform="translate(166.909451, 201.28869)"><g><path d="M 46.484375 2.734375 C 44.679688 2.734375 43.625 1.78125 43.3125 -0.125 C 42.914062 -2.550781 42.519531 -5.960938 42.125 -10.359375 L 41 -20.578125 C 40.78125 -22.097656 40.410156 -23.582031 39.890625 -25.03125 C 39.140625 -27.019531 38.320312 -28.015625 37.4375 -28.015625 C 36.625 -28.015625 35.109375 -27.320312 32.890625 -25.9375 C 30.773438 -24.65625 29.390625 -23.628906 28.734375 -22.859375 C 28.710938 -20.796875 28.769531 -18.726562 28.90625 -16.65625 L 29.890625 -7.84375 C 30.304688 -4.375 30.515625 -1.503906 30.515625 0.765625 C 30.515625 1.722656 30.210938 2.515625 29.609375 3.140625 C 29.003906 3.773438 28.226562 4.09375 27.28125 4.09375 C 26.332031 4.09375 25.554688 3.773438 24.953125 3.140625 C 24.347656 2.515625 24.046875 1.722656 24.046875 0.765625 C 24.046875 -1.898438 23.773438 -5.832031 23.234375 -11.03125 C 22.703125 -16.238281 22.4375 -20.171875 22.4375 -22.828125 C 22.4375 -25.160156 22.101562 -26.972656 21.4375 -28.265625 C 19.90625 -27.566406 18.347656 -26.425781 16.765625 -24.84375 L 12.859375 -20.484375 C 12.515625 -19.953125 11.957031 -19.257812 11.1875 -18.40625 C 11.1875 -17.082031 11.0625 -15.132812 10.8125 -12.5625 C 10.570312 -9.988281 10.453125 -8.085938 10.453125 -6.859375 C 10.453125 -6.203125 10.554688 -5.28125 10.765625 -4.09375 C 10.972656 -2.90625 11.078125 -2.046875 11.078125 -1.515625 C 11.078125 -0.617188 10.742188 0.132812 10.078125 0.75 C 9.410156 1.375 8.625 1.6875 7.71875 1.6875 C 5.226562 1.6875 3.984375 -1.140625 3.984375 -6.796875 C 3.984375 -8.117188 4.101562 -10.085938 4.34375 -12.703125 C 4.59375 -15.316406 4.71875 -17.285156 4.71875 -18.609375 C 4.71875 -19.773438 4.613281 -21.519531 4.40625 -23.84375 C 4.195312 -26.175781 4.09375 -27.9375 4.09375 -29.125 C 4.09375 -34.125 5.210938 -36.625 7.453125 -36.625 C 8.316406 -36.625 9.101562 -36.25 9.8125 -35.5 C 10.53125 -34.75 10.890625 -33.9375 10.890625 -33.0625 C 10.890625 -32.632812 10.832031 -31.984375 10.71875 -31.109375 C 10.613281 -30.234375 10.5625 -29.5625 10.5625 -29.09375 L 10.625 -25.640625 C 11.769531 -27.984375 13.453125 -30.109375 15.671875 -32.015625 C 17.890625 -33.921875 19.78125 -34.875 21.34375 -34.875 C 24.800781 -34.875 27.175781 -33.15625 28.46875 -29.71875 C 29.675781 -31.320312 31.113281 -32.523438 32.78125 -33.328125 C 34.457031 -34.140625 36.375 -34.546875 38.53125 -34.546875 C 42.207031 -34.546875 44.710938 -32.566406 46.046875 -28.609375 C 46.316406 -27.816406 46.769531 -24.722656 47.40625 -19.328125 C 48.019531 -15.546875 48.8125 -9.242188 49.78125 -0.421875 C 49.84375 0.453125 49.546875 1.195312 48.890625 1.8125 C 48.234375 2.425781 47.429688 2.734375 46.484375 2.734375 Z M 46.484375 2.734375 "/></g></g></g><g fill="#ffffff" fill-opacity="1"><g transform="translate(216.000591, 201.28869)"><g><path d="M 16.953125 1.953125 C 13.265625 1.953125 10.085938 0.585938 7.421875 -2.140625 C 4.453125 -5.179688 2.890625 -9.265625 2.734375 -14.390625 C 2.609375 -19.359375 3.863281 -23.734375 6.5 -27.515625 C 9.582031 -31.972656 13.867188 -34.203125 19.359375 -34.203125 C 23.765625 -34.203125 27.097656 -32.191406 29.359375 -28.171875 C 31.160156 -24.921875 32.03125 -21.003906 31.96875 -16.421875 C 31.90625 -11.546875 30.628906 -7.378906 28.140625 -3.921875 C 25.328125 -0.00390625 21.597656 1.953125 16.953125 1.953125 Z M 18.9375 -27.515625 C 15.707031 -27.535156 13.1875 -25.992188 11.375 -22.890625 C 9.945312 -20.410156 9.234375 -17.578125 9.234375 -14.390625 C 9.234375 -11.191406 10.101562 -8.703125 11.84375 -6.921875 C 13.289062 -5.453125 14.992188 -4.71875 16.953125 -4.71875 C 19.242188 -4.71875 21.210938 -5.550781 22.859375 -7.21875 C 24.734375 -9.070312 25.722656 -11.570312 25.828125 -14.71875 C 26.140625 -23.226562 23.84375 -27.492188 18.9375 -27.515625 Z M 18.9375 -27.515625 "/></g></g></g><g fill="#ffffff" fill-opacity="1"><g transform="translate(248.14061, 201.28869)"><g><path d="M 18.609375 1.15625 C 16.410156 1.15625 13.988281 0.800781 11.34375 0.09375 L 11.28125 15.875 C 11.28125 16.832031 10.976562 17.617188 10.375 18.234375 C 9.769531 18.859375 8.992188 19.171875 8.046875 19.171875 C 7.097656 19.171875 6.320312 18.859375 5.71875 18.234375 C 5.113281 17.617188 4.8125 16.832031 4.8125 15.875 L 4.921875 2.671875 L 4.921875 -10.484375 C 4.847656 -15.304688 4.679688 -19.695312 4.421875 -23.65625 L 3.921875 -30.34375 C 3.921875 -31.90625 4.207031 -33.226562 4.78125 -34.3125 C 5.4375 -35.601562 6.394531 -36.25 7.65625 -36.25 C 8.507812 -36.25 9.226562 -35.945312 9.8125 -35.34375 C 10.394531 -34.738281 10.6875 -34 10.6875 -33.125 C 10.6875 -32.925781 10.65625 -32.5625 10.59375 -32.03125 C 10.476562 -31.351562 10.398438 -30.726562 10.359375 -30.15625 C 12.253906 -31.445312 14.078125 -32.414062 15.828125 -33.0625 C 17.585938 -33.71875 19.269531 -34.046875 20.875 -34.046875 C 25.382812 -34.046875 28.6875 -32.046875 30.78125 -28.046875 C 32.425781 -24.878906 33.25 -20.6875 33.25 -15.46875 C 33.25 -10.71875 31.972656 -6.804688 29.421875 -3.734375 C 26.722656 -0.472656 23.117188 1.15625 18.609375 1.15625 Z M 20.875 -27.453125 C 18.851562 -27.453125 17.03125 -27 15.40625 -26.09375 C 14.238281 -25.457031 12.765625 -24.289062 10.984375 -22.59375 C 11.273438 -17.601562 11.421875 -12.359375 11.421875 -6.859375 C 13.816406 -5.929688 16.210938 -5.46875 18.609375 -5.46875 C 21.359375 -5.46875 23.457031 -6.492188 24.90625 -8.546875 C 26.15625 -10.328125 26.78125 -12.632812 26.78125 -15.46875 C 26.78125 -19.46875 26.289062 -22.460938 25.3125 -24.453125 C 24.332031 -26.453125 22.851562 -27.453125 20.875 -27.453125 Z M 20.875 -27.453125 "/></g></g></g><g fill="#ffffff" fill-opacity="1"><g transform="translate(280.874247, 201.28869)"><g><path d="M 30.34375 2.171875 C 29.925781 2.171875 29.171875 1.6875 28.078125 0.71875 C 27.085938 -0.175781 26.347656 -0.976562 25.859375 -1.6875 C 23.753906 -0.539062 21.894531 0.320312 20.28125 0.90625 C 18.675781 1.488281 17.335938 1.78125 16.265625 1.78125 C 11.117188 1.78125 7.367188 0.328125 5.015625 -2.578125 C 2.796875 -5.296875 1.6875 -9.472656 1.6875 -15.109375 C 1.6875 -20.429688 3.515625 -24.984375 7.171875 -28.765625 C 10.835938 -32.546875 15.207031 -34.4375 20.28125 -34.4375 C 22.195312 -34.4375 24.34375 -33.941406 26.71875 -32.953125 C 29.707031 -31.722656 31.203125 -30.238281 31.203125 -28.5 C 31.203125 -27.90625 30.984375 -27.378906 30.546875 -26.921875 C 30.328125 -26.085938 30.15625 -24.710938 30.03125 -22.796875 C 29.914062 -20.878906 29.847656 -18.425781 29.828125 -15.4375 C 29.804688 -12.707031 29.992188 -10.550781 30.390625 -8.96875 C 30.609375 -8 31.300781 -6.066406 32.46875 -3.171875 C 32.613281 -2.773438 32.863281 -2.191406 33.21875 -1.421875 L 33.421875 -0.859375 C 33.421875 0.0234375 33.113281 0.75 32.5 1.3125 C 31.882812 1.882812 31.164062 2.171875 30.34375 2.171875 Z M 23.484375 -20.75 C 23.484375 -21.695312 23.539062 -22.722656 23.65625 -23.828125 C 23.78125 -24.941406 23.96875 -26.125 24.21875 -27.375 C 23.40625 -27.800781 22.707031 -28.113281 22.125 -28.3125 C 21.539062 -28.507812 21.070312 -28.609375 20.71875 -28.609375 C 17.3125 -28.609375 14.367188 -27.210938 11.890625 -24.421875 C 9.421875 -21.640625 8.1875 -18.4375 8.1875 -14.8125 C 8.1875 -11.207031 8.820312 -8.5 10.09375 -6.6875 C 11.375 -4.882812 13.285156 -3.984375 15.828125 -3.984375 C 17.941406 -3.984375 19.738281 -4.367188 21.21875 -5.140625 C 22.007812 -5.554688 23.117188 -6.394531 24.546875 -7.65625 C 23.835938 -13.476562 23.484375 -17.84375 23.484375 -20.75 Z M 23.484375 -20.75 "/></g></g></g><g fill="#ffffff" fill-opacity="1"><g transform="translate(312.057871, 201.28869)"><g><path d="M 34.96875 -29.125 C 34.707031 -25.894531 34.578125 -22.664062 34.578125 -19.4375 C 34.578125 -12.113281 34.914062 -6.582031 35.59375 -2.84375 C 35.632812 -2.53125 35.65625 -2.273438 35.65625 -2.078125 C 35.65625 -1.203125 35.347656 -0.476562 34.734375 0.09375 C 34.117188 0.664062 33.40625 0.953125 32.59375 0.953125 C 31.226562 0.953125 30.226562 -0.0351562 29.59375 -2.015625 C 28.007812 -0.847656 26.363281 0.03125 24.65625 0.625 C 22.957031 1.21875 21.179688 1.515625 19.328125 1.515625 C 14.773438 1.515625 11.003906 0 8.015625 -3.03125 C 4.929688 -6.132812 3.390625 -10.117188 3.390625 -14.984375 C 3.390625 -20.847656 4.945312 -25.550781 8.0625 -29.09375 C 11.175781 -32.632812 15.21875 -34.40625 20.1875 -34.40625 C 22.738281 -34.40625 24.707031 -34.007812 26.09375 -33.21875 L 29.203125 -30.9375 C 29.503906 -40.195312 29.863281 -46.4375 30.28125 -49.65625 C 30.570312 -51.601562 31.570312 -52.578125 33.28125 -52.578125 C 35.28125 -52.578125 36.28125 -51.515625 36.28125 -49.390625 C 36.28125 -46.328125 35.84375 -39.570312 34.96875 -29.125 Z M 20.328125 -28.265625 C 16.628906 -28.265625 13.851562 -27.171875 12 -24.984375 C 10.15625 -22.796875 9.234375 -19.503906 9.234375 -15.109375 C 9.234375 -12.273438 10.238281 -9.832031 12.25 -7.78125 C 14.269531 -5.738281 16.628906 -4.71875 19.328125 -4.71875 C 21.179688 -4.71875 22.742188 -5.054688 24.015625 -5.734375 C 24.765625 -6.128906 25.984375 -7.046875 27.671875 -8.484375 C 28.003906 -8.765625 28.328125 -9.101562 28.640625 -9.5 L 28.53125 -15.203125 L 28.5625 -19.03125 L 28.640625 -22.921875 C 27.796875 -24.703125 26.679688 -26.035156 25.296875 -26.921875 C 23.910156 -27.816406 22.253906 -28.265625 20.328125 -28.265625 Z M 20.328125 -28.265625 "/></g></g></g></svg>